<svg xmlns="http://www.w3.org/2000/svg" xml:space="preserve" id="Слой_1" x="0" y="0" enable-background="new 0 0 91 129" version="1.1" viewBox="0 0 91 129">
  <style>
    .st0{enable-background:new}.st1{fill:#1e1e1e}
  </style>
  <g id="Page-1">
    <g id="About-desktop" transform="translate(-84 -50)">
      <g id="Group" transform="translate(76 50)">
        <g class="st0">
          <path d="M26.2 98.8h.2l5.7-13.2h4.7V101h-3.2V88.7h-.2L28.2 101h-3.7l-5.3-12.3H19V101h-3.2V85.6h4.7l5.7 13.2zM46.5 99.9c.7 0 1.4-.1 2-.4.6-.2 1.2-.6 1.8-1.1l.9 1.3c-.3.2-.6.5-1 .7-.4.2-.8.4-1.2.5-.4.1-.9.2-1.4.3-.5.1-.9.1-1.4.1-1 0-2-.1-2.8-.4-.9-.3-1.6-.7-2.2-1.2-.6-.5-1.1-1.2-1.4-1.9s-.5-1.6-.5-2.6.2-1.9.5-2.6a5.33 5.33 0 0 1 3.3-3.1c.8-.3 1.6-.4 2.6-.4.9 0 1.7.1 2.5.4.8.3 1.5.6 2 1.2.6.5 1 1.1 1.4 1.8.3.7.5 1.5.5 2.4v1.5h-9.4c.2 1.2.6 2.1 1.3 2.6.7.6 1.5.9 2.5.9zm-.7-9.4c-.4 0-.8.1-1.2.2-.4.2-.7.4-1 .8a6.01 6.01 0 0 0-1 3.4h6.2a6.01 6.01 0 0 0-1-3.4c-.3-.4-.6-.6-1-.8-.3-.1-.7-.2-1-.2zM60.8 89.1c.5 0 .9 0 1.4.1l1.4.3c.5.1.8.3 1.2.5.4.2.7.4 1 .7l-.9 1.3c-.6-.5-1.2-.8-1.8-1.1-.6-.2-1.3-.4-2-.4-.5 0-1 .1-1.5.3-.4.2-.8.4-1.1.8-.3.4-.6.9-.8 1.4-.2.6-.3 1.3-.3 2.1s.1 1.5.3 2.1c.2.6.4 1.1.8 1.4.3.4.7.6 1.2.8.5.2 1 .3 1.6.3.7 0 1.4-.1 2-.4.6-.2 1.2-.6 1.8-1.1l.9 1.3c-.3.2-.6.5-1 .7-.4.2-.8.4-1.2.5-.4.1-.9.2-1.4.3-.5.1-.9.1-1.4.1-1 0-2-.1-2.8-.4s-1.6-.7-2.2-1.2c-.6-.5-1.1-1.2-1.4-1.9s-.5-1.6-.5-2.6.2-1.9.5-2.6c.3-.8.8-1.4 1.4-1.9.6-.5 1.3-.9 2.1-1.2.8 0 1.7-.2 2.7-.2zM78.9 91.1h-4.6v9.9h-3.1v-9.9h-4.6v-1.5h12.3v1.5zM86.1 89.1c1 0 1.9.1 2.7.4.8.3 1.5.7 2.1 1.2s1 1.2 1.4 1.9a7.08 7.08 0 0 1 0 5.2c-.3.7-.8 1.4-1.4 1.9-.6.5-1.3.9-2.1 1.2-.8.3-1.7.4-2.7.4-1 0-1.9-.1-2.7-.4-.8-.3-1.5-.7-2.1-1.2-.6-.5-1-1.2-1.4-1.9s-.5-1.6-.5-2.6.2-1.9.5-2.6c.3-.8.8-1.4 1.4-1.9.6-.5 1.3-.9 2.1-1.2.8-.2 1.7-.4 2.7-.4zm0 10.9c.5 0 .9-.1 1.3-.3.4-.2.8-.5 1.1-.8.3-.4.6-.9.7-1.5s.3-1.3.3-2.2-.1-1.6-.3-2.2c-.2-.6-.4-1.1-.7-1.5-.3-.4-.7-.6-1.1-.8-.4-.2-.9-.3-1.3-.3s-.9.1-1.3.3c-.4.2-.8.5-1.1.8-.3.4-.6.9-.7 1.5-.2.6-.3 1.3-.3 2.2s.1 1.6.3 2.2c.2.6.4 1.1.7 1.5.3.4.7.6 1.1.8.4.2.8.3 1.3.3z" class="st1"/>
        </g>
        <g class="st0">
          <path d="M15.6 113.8c-1.1 0-2 .2-3 .5-.9.3-1.8.8-2.6 1.5l-1-1.3c.8-.7 1.8-1.3 3-1.7 1.2-.4 2.4-.6 3.8-.6 1.1 0 2.1.1 3 .3.9.2 1.6.5 2.1.9.6.4 1 .8 1.3 1.3.3.5.4 1 .4 1.6 0 .9-.2 1.7-.7 2.3-.5.6-1.2 1.1-2.2 1.4 1.1.3 2 .7 2.6 1.4s.9 1.5.9 2.6c0 .6-.2 1.2-.5 1.8-.3.5-.8 1-1.4 1.4s-1.5.7-2.5 1-2.2.4-3.6.4-2.8-.2-4-.7c-1.2-.5-2.2-1.1-3.1-1.8l1.1-1.3c.8.8 1.7 1.3 2.7 1.7.9.3 2 .5 3.1.5.9 0 1.6-.1 2.2-.2.6-.2 1.1-.4 1.5-.6s.6-.6.8-1c.2-.4.3-.8.3-1.2 0-.9-.3-1.6-.8-2-.6-.5-1.4-.7-2.6-.7h-4.6v-1.7H16c2.1 0 3.2-1 3.2-2.9 0-.8-.3-1.4-.9-1.9-.6-.7-1.5-1-2.7-1zM34 120.7c0-1.1-.3-1.8-.8-2.3s-1.3-.7-2.1-.7c-.7 0-1.3.1-1.9.3-.6.2-1.2.5-1.7.8l-.8-1.3c.3-.2.7-.4 1.1-.6s.8-.3 1.2-.4l1.2-.3c.4-.1.8-.1 1.1-.1.9 0 1.8.1 2.5.3.7.2 1.3.5 1.8.9s.9.9 1.1 1.5c.3.6.4 1.2.4 1.9v7.3h-6.2c-2 0-3.5-.3-4.4-.9-.9-.6-1.4-1.5-1.4-2.7s.5-2.1 1.4-2.7c.9-.6 2.4-.9 4.4-.9H34zm-5.6 3.7c0 1.4.8 2.1 2.5 2.1H34v-4.2h-3.1c-1.7 0-2.5.7-2.5 2.1zM46.3 117.4c.9 0 1.8.1 2.5.4s1.5.6 2 1.1a5.15 5.15 0 0 1 1.3 6.1c-.3.7-.8 1.3-1.4 1.7-.6.5-1.3.9-2.1 1.1s-1.7.4-2.7.4c-1 0-1.9-.1-2.7-.4-.8-.3-1.5-.7-2.1-1.2a5.53 5.53 0 0 1-1.9-4.4V120c0-2.3.5-4 1.6-5.2 1.1-1.2 2.6-1.9 4.6-2l5.7-.5v2.5l-5.5.5c-3.1.3-4.6 1.9-4.6 4.7h.2c.4-.8 1-1.5 1.8-1.9s2.1-.7 3.3-.7zm-.2 1.6c-.4 0-.9.1-1.3.3-.4.2-.7.4-1.1.7-.3.3-.5.7-.7 1.2-.2.5-.3 1.1-.3 1.7a4.84 4.84 0 0 0 1 3.1c.3.3.7.6 1.1.8.4.2.8.3 1.3.3s.9-.1 1.3-.3c.4-.2.7-.4 1.1-.8.3-.3.6-.8.7-1.3.2-.5.3-1.1.3-1.8s-.1-1.2-.3-1.7-.4-.9-.7-1.2c-.3-.3-.7-.6-1.1-.7-.5-.2-.9-.3-1.3-.3zM61.1 116.1c1 0 1.9.1 2.7.4.8.3 1.5.7 2.1 1.2s1 1.2 1.4 1.9a7.08 7.08 0 0 1 0 5.2c-.3.7-.8 1.4-1.4 1.9-.6.5-1.3.9-2.1 1.2-.8.3-1.7.4-2.7.4-1 0-1.9-.1-2.7-.4-.8-.3-1.5-.7-2.1-1.2-.6-.5-1-1.2-1.4-1.9s-.5-1.6-.5-2.6.2-1.9.5-2.6c.3-.8.8-1.4 1.4-1.9.6-.5 1.3-.9 2.1-1.2.8-.2 1.8-.4 2.7-.4zm0 10.9c.5 0 .9-.1 1.3-.3.4-.2.8-.5 1.1-.8.3-.4.6-.9.7-1.5s.3-1.3.3-2.2-.1-1.6-.3-2.2c-.2-.6-.4-1.1-.7-1.5-.3-.4-.7-.6-1.1-.8-.4-.2-.9-.3-1.3-.3s-.9.1-1.3.3c-.4.2-.8.5-1.1.8-.3.4-.6.9-.7 1.5-.2.6-.3 1.3-.3 2.2s.1 1.6.3 2.2c.2.6.4 1.1.7 1.5.3.4.7.6 1.1.8.4.2.9.3 1.3.3zM80.7 118.1h-4.6v9.9H73v-9.9h-4.6v-1.5h12.3v1.5zM88.4 120.5c1.9 0 3.2.3 4.1 1 .9.7 1.3 1.6 1.3 2.7 0 1.2-.4 2.1-1.3 2.7-.9.7-2.2 1-4.1 1h-5.9v-11.4h3.1v4h2.8zm-2.8 1.6v4.4h2.9c.7 0 1.2-.2 1.5-.6s.5-.9.5-1.6c0-.7-.2-1.3-.5-1.6s-.9-.6-1.5-.6h-2.9zm9.9 5.9v-11.4h3.1V128h-3.1z" class="st1"/>
        </g>
        <g id="Иконка" transform="translate(13)">
          <g id="Rectangle" transform="translate(21.75)">
            <g id="Mask">
              <linearGradient id="path-2_3_" x1="-924.83" x2="-924.83" y1="597.08" y2="596.08" gradientTransform="matrix(59.2472 0 0 -59.9839 54822.93 35815.26)" gradientUnits="userSpaceOnUse">
                <stop offset="0" stop-color="#6a8971"/>
                <stop offset="1" stop-color="#627f5f"/>
              </linearGradient>
              <path id="path-2_1_" fill="url(#path-2_3_)" d="M53.7 5.6c7.3 7.4 7.3 19.5 0 26.9L32.1 54.4c-7.3 7.4-19.2 7.4-26.6 0s-7.3-19.5 0-26.9L27.2 5.6c7.3-7.5 19.2-7.5 26.5 0z"/>
            </g>
            <defs>
              <filter id="Adobe_OpacityMaskFilter" width="105" height="56" x="-25.3" y="4.9" filterUnits="userSpaceOnUse">
                <feColorMatrix values="1 0 0 0 0 0 1 0 0 0 0 0 1 0 0 0 0 0 1 0"/>
              </filter>
            </defs>
            <mask id="mask-3_1_" width="105" height="56" x="-25.3" y="4.9" maskUnits="userSpaceOnUse">
              <g filter="url(#Adobe_OpacityMaskFilter)">
                <path id="path-2_2_" fill="#fff" fill-rule="evenodd" d="M53.7 5.6c7.3 7.4 7.3 19.5 0 26.9L32.1 54.4c-7.3 7.4-19.2 7.4-26.6 0s-7.3-19.5 0-26.9L27.2 5.6c7.3-7.5 19.2-7.5 26.5 0z" clip-rule="evenodd"/>
              </g>
            </mask>
            <g mask="url(#mask-3_1_)" transform="rotate(-45 25.35 34.24)">
              <g>
                <path id="path-5_2_" fill-rule="evenodd" d="M25.5 15.3c5.2 0 9.4 4.1 9.4 9.3v.1l-.2 28.4a18.8 18.8 0 0 1-18.8-18.6v-.2l.1-9.5c0-5.2 4.2-9.4 9.5-9.5z" clip-rule="evenodd"/>
              </g>
              <path id="path-5_1_" fill="url(#path-5_2_)" fill-rule="evenodd" d="M25.5 15.3c5.2 0 9.4 4.1 9.4 9.3v.1l-.2 28.4a18.8 18.8 0 0 1-18.8-18.6v-.2l.1-9.5c0-5.2 4.2-9.4 9.5-9.5z" clip-rule="evenodd"/>
            </g>
          </g>
          <linearGradient id="Rectangle_2_" x1="-906.21" x2="-905.92" y1="596.65" y2="596.39" gradientTransform="matrix(73.3987 0 0 -60 66539.38 35825)" gradientUnits="userSpaceOnUse">
            <stop offset="0" stop-color="#ff9b46"/>
            <stop offset="1" stop-color="#ff8425"/>
          </linearGradient>
          <path id="Rectangle_1_" fill="url(#Rectangle_2_)" fill-rule="evenodd" d="M5.5 5.6c7.3-7.4 19.2-7.4 26.6 0L52 25.8a29.5 29.5 0 0 0 21.1 8.8h.3L53.7 54.4c-7.3 7.4-19.2 7.4-26.6 0l-21.7-22C-1.8 25-1.8 13 5.5 5.6z" clip-rule="evenodd"/>
        </g>
      </g>
    </g>
  </g>
</svg>
