<?xml version="1.0" encoding="utf-8"?><svg xmlns="http://www.w3.org/2000/svg" xmlns:xlink="http://www.w3.org/1999/xlink"><symbol viewBox="0 0 20 20" id="alert_svg" xmlns="http://www.w3.org/2000/svg"><path fill-rule="evenodd" d="M10 0a10 10 0 100 20 10 10 0 000-20zm0 15a1.25 1.25 0 110-2.5 1.25 1.25 0 010 2.5zm1.25-4.38h-2.5l-.63-5c0-.34.28-.62.63-.62h2.5c.35 0 .63.28.63.63l-.63 5z"/></symbol><symbol viewBox="0 0 33 16" id="arr_l_svg" xmlns="http://www.w3.org/2000/svg"><path fill-rule="evenodd" d="M.378 7.087l.001-.002L7.115.375A1.288 1.288 0 018.938.38c.502.505.5 1.322-.004 1.825L4.41 6.71h27.3a1.29 1.29 0 010 2.58H4.41l4.523 4.505a1.291 1.291 0 01.004 1.825 1.288 1.288 0 01-1.823.004L.378 8.914H.377a1.292 1.292 0 010-1.827z"/></symbol><symbol viewBox="0 0 33 16" id="arr_r_svg" xmlns="http://www.w3.org/2000/svg"><path fill-rule="evenodd" d="M32.622 7.087l-.001-.002-6.736-6.71a1.288 1.288 0 00-1.823.005c-.502.505-.5 1.322.004 1.825L28.59 6.71H1.29a1.29 1.29 0 000 2.58h27.3l-4.523 4.505a1.291 1.291 0 00-.004 1.825 1.288 1.288 0 001.823.004l6.736-6.71h.001a1.292 1.292 0 000-1.827z"/></symbol><symbol viewBox="0 0 50 48" id="brick_svg" xmlns="http://www.w3.org/2000/svg"><path d="M47.54 22.3A2.47 2.47 0 0050 19.84V9c0-1.36-1.1-2.47-2.46-2.47h-1.07V2.48C46.47 1.1 45.37 0 44 0h-6.18a2.47 2.47 0 00-2.46 2.48v4.04H32.3V2.48C32.3 1.11 31.2 0 29.84 0h-6.17a2.47 2.47 0 00-2.46 2.48v4.04h-1.08a2.47 2.47 0 00-2.46 2.47v10.37h-3.05v-4.04c0-1.36-1.1-2.47-2.46-2.47H6a2.47 2.47 0 00-2.46 2.47v4.04H2.46A2.47 2.47 0 000 21.84v10.84c0 1.36 1.1 2.47 2.46 2.47h15.22v10.37c0 1.37 1.1 2.48 2.46 2.48h27.4A2.47 2.47 0 0050 45.52V34.68c0-1.36-1.1-2.47-2.46-2.47h-1.07v-4.04c0-1.37-1.1-2.48-2.46-2.48h-6.18a2.47 2.47 0 00-2.46 2.48v4.04h-3.05v-9.9h15.22zM38.3 2.96h5.24v3.57H38.3V2.95zm-14.15 0h5.23v3.57h-5.23V2.95zM6.46 15.79h5.24v3.57H6.46V15.8zM2.93 32.21v-9.9h26.46v9.9H2.93zm35.37-3.57h5.24v3.57H38.3v-3.57zm6.7 6.52h2.07v9.9H20.61v-9.9h24.4zm-24.39-15.8v-9.9h26.46v9.9H20.61z"/></symbol><symbol viewBox="0 0 22 19" id="burger_svg" xmlns="http://www.w3.org/2000/svg"><rect x=".313" width="21.375" height="2.375" rx="1.188"/><rect x=".313" y="8.313" width="21.375" height="2.375" rx="1.188"/><rect x=".313" y="16.625" width="21.375" height="2.375" rx="1.188"/></symbol><symbol viewBox="0 0 46 46" id="cart_svg" xmlns="http://www.w3.org/2000/svg"><path d="M11.45 28.68h31.76a1.35 1.35 0 001.34-1.25L46 7.22a1.35 1.35 0 00-1.35-1.45H28.68V2.8a1.35 1.35 0 10-2.7 0v2.98H11.01l-.38-4.53A1.35 1.35 0 009.29 0H1.35a1.35 1.35 0 100 2.7h6.7l.4 4.73L10 26.17a5.68 5.68 0 001.45 11.17h.23a5.68 5.68 0 109.65 0h12.72a5.68 5.68 0 109.6-.08 1.35 1.35 0 00-.44-2.62H11.45a2.98 2.98 0 010-5.96zM25.98 8.47v8.39l-2.03-2.03a1.35 1.35 0 10-1.9 1.9l4.33 4.34a1.35 1.35 0 001.9 0l4.33-4.33a1.35 1.35 0 10-1.9-1.91l-2.03 2.03V8.47H43.2l-1.25 17.51H12.7L11.23 8.47zm12.9 28.87a2.98 2.98 0 11-2.98 2.98 2.99 2.99 0 012.98-2.98zm-22.38 0a2.98 2.98 0 11-2.98 2.98 2.99 2.99 0 012.98-2.98z" data-name="4"/></symbol><symbol viewBox="0 0 44 50" id="char_svg" xmlns="http://www.w3.org/2000/svg"><path d="M31.1 14.98a10.27 10.27 0 10-18.22 0A16.35 16.35 0 00.01 30.96v2.06c0 4.73 1.84 9.17 5.2 12.52.98.99 2.3 1.53 3.7 1.53 2.29 0 4.23-1.41 4.95-3.58 1.97 1.77 4.59 3.9 7.19 6.15a1.46 1.46 0 001.92 0c2.62-2.27 5.21-4.38 7.2-6.15a5.21 5.21 0 008.65 2.05A17.57 17.57 0 0044 33.02v-2.06c0-7.92-5.66-14.48-12.9-15.98zM22 2.93a7.34 7.34 0 017.33 7.32 7.34 7.34 0 01-14.66 0A7.34 7.34 0 0122 2.93zm9.23 35.38v.01c-.51.58-1.1 1.19-1.79 1.84-1.96 1.88-4.5 3.92-7.44 6.44-7-5.99-11.65-9.28-11.65-13.66 0-3.22 2.19-5.64 5.1-5.64 1.54 0 2.85.72 3.9 2.16.87 1.19 1.23 2.43 1.24 2.44a1.47 1.47 0 002.82 0c0-.01.37-1.25 1.24-2.44a4.72 4.72 0 013.9-2.16c2.91 0 5.1 2.42 5.1 5.64 0 1.78-.7 3.4-2.42 5.37zm9.84-5.29c0 3.95-1.54 7.66-4.33 10.45a2.3 2.3 0 01-1.64.67c-2 0-2.94-2.3-1.73-3.82 1.82-2.06 3.21-4.43 3.21-7.38 0-4.67-3.33-8.57-8.02-8.57-2.53 0-4.73 1.19-6.34 3.45l-.22.31-.22-.31c-1.61-2.26-3.8-3.45-6.34-3.45-4.7 0-8.02 3.9-8.02 8.57 0 2.85 1.3 5.18 3.17 7.33 1.28 1.53.34 3.87-1.7 3.87a2.3 2.3 0 01-1.63-.67 14.67 14.67 0 01-4.33-10.45v-2.06c0-6.84 5.3-12.68 11.95-13.32a10.24 10.24 0 0014.24 0 13.45 13.45 0 0111.95 13.32v2.06z"/></symbol><symbol viewBox="0 0 16 12" id="check_svg" xmlns="http://www.w3.org/2000/svg"><path d="M15.766.24a.788.788 0 00-1.132 0L5.05 10.027 1.366 6.265a.788.788 0 00-1.132 0 .83.83 0 000 1.156l4.25 4.34a.79.79 0 001.132 0l10.15-10.366a.83.83 0 000-1.156z"/></symbol><symbol viewBox="0 0 20 20" id="clock_svg" xmlns="http://www.w3.org/2000/svg"><path fill-rule="evenodd" d="M10 0a10 10 0 100 20 10 10 0 000-20zm3.37 13.37a.9.9 0 01-1.29 0l-2.72-2.73a.9.9 0 01-.27-.64V4.55a.9.9 0 111.82 0v5.07l2.46 2.46a.9.9 0 010 1.29z"/></symbol><symbol viewBox="0 0 13 13" id="close2_svg" xmlns="http://www.w3.org/2000/svg"><path d="M6.96.63A6 6 0 00.92 6.67a6 6 0 006.04 6.04A6 6 0 0013 6.67 6 6 0 006.96.63zM9.3 9.69L6.96 7.36 4.63 9.69l-.69-.7 2.33-2.32-2.33-2.33.7-.7 2.32 2.34L9.3 3.65l.7.69-2.34 2.33L9.98 9l-.69.69z"/></symbol><symbol xml:space="preserve" id="close_svg" viewBox="0 0 25.2 25.1" xmlns="http://www.w3.org/2000/svg"><style>.akst0{fill-rule:evenodd;clip-rule:evenodd}</style><g transform="translate(-1171 -314)"><g id="akForm" transform="translate(685 300)"><g id="akGroup" transform="rotate(45 237.444 624.31)"><path id="akRectangle" d="M-16.6 16h32c.6 0 1 .4 1 1s-.4 1-1 1h-32c-.6 0-1-.4-1-1s.5-1 1-1z" class="akst0"/><path id="akRectangle_1_" d="M.4 1v32c0 .6-.4 1-1 1s-1-.4-1-1V1c0-.6.4-1 1-1s1 .4 1 1z" class="akst0"/></g></g></g></symbol><symbol viewBox="0 0 50 50" id="consul_svg" xmlns="http://www.w3.org/2000/svg"><path d="M48.393 37.21A10.371 10.371 0 0150 42.764v3.505A3.734 3.734 0 0146.27 50H32.9c-2.072 0-3.758-1.673-3.758-3.73v-3.505c0-1.748.443-3.478 1.283-5.003l2.808 1.545a7.188 7.188 0 00-.886 3.458v3.505c0 .28.258.525.553.525h13.37c.29 0 .525-.235.525-.525v-3.505a7.172 7.172 0 00-1.11-3.842l2.708-1.714zm-8.808-11.852a7.035 7.035 0 017.026 7.026 7.034 7.034 0 01-7.026 7.027 7.034 7.034 0 01-7.027-7.027 7.035 7.035 0 017.027-7.026zm0 3.205a3.826 3.826 0 00-3.822 3.821 3.826 3.826 0 003.822 3.822 3.826 3.826 0 003.821-3.822 3.826 3.826 0 00-3.821-3.821zm-20.333 8.646a10.371 10.371 0 011.607 5.556v3.505A3.734 3.734 0 0117.13 50H3.76C1.685 50 0 48.327 0 46.27v-3.505c0-1.748.444-3.478 1.283-5.003l2.808 1.545a7.188 7.188 0 00-.886 3.458v3.505c0 .28.259.525.553.525H17.13a.525.525 0 00.524-.525v-3.505a7.172 7.172 0 00-1.11-3.842l2.708-1.714zm-8.808-11.851a7.035 7.035 0 017.026 7.026 7.034 7.034 0 01-7.026 7.027 7.034 7.034 0 01-7.027-7.027 7.035 7.035 0 017.027-7.026zm0 3.205a3.826 3.826 0 00-3.821 3.821 3.826 3.826 0 003.82 3.822 3.826 3.826 0 003.822-3.822 3.826 3.826 0 00-3.821-3.821zm6.029-23.458V8.31h-4.265a.513.513 0 00-.494.492v10.61l2.19-1.652a3.718 3.718 0 012.23-.744h10.985v3.205H16.134a.516.516 0 00-.298.097l-4.76 3.59a.783.783 0 01-.19.092l-.149.046c-.675.183-2.054.208-2.228-1.417V8.802a3.702 3.702 0 013.699-3.697h4.265zM37.783 0c2.045 0 3.709 1.648 3.709 3.674v13.881c0 1.854-1.922 1.996-2.57 1.279l-4.777-3.611a.53.53 0 00-.302-.106h-11.03c-2.023 0-3.67-1.64-3.67-3.655V3.674A3.676 3.676 0 0122.813 0h14.97zm0 3.205h-14.97a.462.462 0 00-.464.47v7.787c0 .256.2.45.464.45h11.03a3.73 3.73 0 012.235.754l2.208 1.67V3.673c0-.25-.234-.469-.502-.469zm-2.786 2.857v3.205h-9.359V6.062h9.359z"/></symbol><symbol viewBox="0 0 50 52" id="deliv_svg" xmlns="http://www.w3.org/2000/svg"><path d="M50 19.278V46.23c0 .836-.64 1.522-1.457 1.596l-.146.006h-4.364A5.884 5.884 0 0138.41 52a5.885 5.885 0 01-5.551-3.943l-.073-.224h-5.22v-3.205h5.166a5.884 5.884 0 015.678-4.355c2.635 0 4.87 1.74 5.613 4.13l.065.225h2.708V35.12H36.29l.728.747-2.297 2.236-3.346-3.438a1.603 1.603 0 01-.1-2.124l.109-.121 3.402-3.438 2.278 2.254-.671.678h10.402V19.279H50zm-30.342 0V46.23c0 .836-.64 1.522-1.457 1.596l-.145.006h-2.619A5.884 5.884 0 019.813 52a5.885 5.885 0 01-5.551-3.943l-.073-.224H1.603c-.836 0-1.523-.64-1.596-1.456L0 46.23V32.039c0-.287.077-.568.222-.814l.095-.143 6.935-9.313a1.603 1.603 0 011.117-.636l.168-.01h7.916v-1.845h3.205zm18.751 24.2a2.668 2.668 0 00-2.671 2.658 2.668 2.668 0 002.671 2.659 2.668 2.668 0 002.671-2.659 2.668 2.668 0 00-2.671-2.658zm-28.596 0a2.668 2.668 0 00-2.671 2.658 2.668 2.668 0 002.671 2.659 2.668 2.668 0 002.67-2.659 2.668 2.668 0 00-2.67-2.658zm15.294 1.15v3.205h-2.992v-3.205h2.992zM16.453 24.33H9.342l-6.126 8.227h7.681V27.64h3.206v6.517c0 .836-.64 1.522-1.457 1.596l-.146.007H3.205v8.867h.93a5.884 5.884 0 015.678-4.355c2.635 0 4.87 1.74 5.613 4.13l.065.225h.962V24.33zM34.947 0c.737 0 1.378.504 1.555 1.214l.486 1.95c.227.083.45.176.67.273l1.756-1.045a1.612 1.612 0 011.951.233l2.837 2.783a1.582 1.582 0 01.24 1.963l-1.055 1.71c.097.21.187.422.27.635l2 .478c.72.171 1.228.811 1.228 1.546v3.936c0 .735-.508 1.375-1.228 1.547l-2.014.48a11.284 11.284 0 01-.274.634l1.05 1.698a1.583 1.583 0 01-.239 1.964l-2.835 2.782a1.611 1.611 0 01-1.952.232l-1.765-1.054a11.555 11.555 0 01-.67.27l-.482 1.927a1.6 1.6 0 01-1.555 1.208h-4.01a1.6 1.6 0 01-1.555-1.208l-.484-1.937a11.568 11.568 0 01-.668-.269l-1.758 1.048a1.611 1.611 0 01-1.951-.233l-2.836-2.783a1.582 1.582 0 01-.239-1.964l1.059-1.711a11.049 11.049 0 01-.266-.634l-1.987-.476A1.593 1.593 0 0119 15.65v-3.936c0-.735.507-1.374 1.226-1.547l1.997-.479c.083-.213.173-.424.268-.632L21.44 7.355a1.582 1.582 0 01.239-1.964l2.835-2.782a1.611 1.611 0 011.952-.233l1.764 1.052a11.541 11.541 0 01.67-.272l.483-1.941A1.606 1.606 0 0130.937 0h4.01zm-1.254 3.182h-1.501l-.395 1.589a1.6 1.6 0 01-1.124 1.152 8.296 8.296 0 00-1.748.709 1.613 1.613 0 01-1.596-.03l-1.448-.863-1.045 1.027.856 1.384a1.58 1.58 0 01.03 1.616 7.962 7.962 0 00-.612 1.353l-.112.352c-.16.549-.604.97-1.163 1.104l-1.63.392v1.431l1.622.39c.56.134 1.005.557 1.164 1.108a7.944 7.944 0 00.719 1.708 1.581 1.581 0 01-.032 1.611l-.86 1.392 1.045 1.027 1.44-.858a1.613 1.613 0 011.6-.028 8.295 8.295 0 001.747.702c.553.156.98.594 1.118 1.148l.397 1.584h1.503l.394-1.577a1.597 1.597 0 011.123-1.148 8.288 8.288 0 001.748-.704 1.613 1.613 0 011.597.032l1.447.864 1.045-1.025-.856-1.384a1.581 1.581 0 01-.03-1.616 7.975 7.975 0 00.737-1.705c.16-.55.605-.971 1.165-1.105l1.642-.391v-1.43l-1.634-.39a1.597 1.597 0 01-1.165-1.108 7.96 7.96 0 00-.726-1.708 1.58 1.58 0 01.03-1.61l.86-1.392-1.048-1.029-1.442.86a1.613 1.613 0 01-1.6.027 8.3 8.3 0 00-1.746-.71c-.554-.156-.98-.6-1.12-1.154l-.396-1.597zm-.764 4.88c3.116 0 5.652 2.527 5.652 5.633s-2.536 5.634-5.652 5.634-5.652-2.527-5.652-5.634c0-3.106 2.536-5.633 5.652-5.633zm0 3.182a2.452 2.452 0 000 4.903 2.452 2.452 0 000-4.903z"/></symbol><symbol viewBox="0 0 40 50" id="dis_svg" xmlns="http://www.w3.org/2000/svg"><path d="M16.74 13.56c3.2-1.6 7.04.72 7.04 4.37v9.25h8.11a4.85 4.85 0 014.72 3.7l3.24 13.04a4.86 4.86 0 11-9.44 2.37l-2.32-9.34h-1.07A13.56 13.56 0 0113.52 50C6.05 50 0 43.9 0 36.4a13.56 13.56 0 017.58-12.2v-3.02a4.86 4.86 0 012.68-4.37zM31.9 30.43h-6.24c.5 1.03.88 2.13 1.1 3.27h2.6c.75 0 1.4.5 1.58 1.23l2.63 10.57a1.62 1.62 0 103.15-.79l-3.25-13.04a1.62 1.62 0 00-1.57-1.24zm-14.6-3.62v4.17c0 2.7-2.18 4.89-4.86 4.89a4.87 4.87 0 01-4.85-4.9v-2.99c-2.69 1.9-4.34 5-4.34 8.43 0 5.7 4.61 10.33 10.27 10.33a10.35 10.35 0 007.52-17.37l-.06-.06a10.22 10.22 0 00-3.67-2.5zm2.14-10.42c-.4-.13-.84-.11-1.24.09l-6.48 3.26c-.56.27-.9.83-.9 1.45v9.79a1.63 1.63 0 103.25 0V23.2a1.62 1.62 0 113.24 0v.16c1.15.33 2.25.82 3.25 1.43v-6.87c0-.65-.4-1.23-.97-1.49zM20.54 0a6.51 6.51 0 010 13.04 6.51 6.51 0 010-13.04zm0 3.26a3.26 3.26 0 000 6.52 3.26 3.26 0 000-6.52z"/></symbol><symbol viewBox="0 0 52 42" id="grad_svg" xmlns="http://www.w3.org/2000/svg"><path d="M51.55 30.8l-4.02-4.08V12.76l2.63-.96c.6-.22 1-.8 1-1.45 0-.65-.4-1.23-1-1.45L26.1.1a1.5 1.5 0 00-1.04 0L1 8.9a1.54 1.54 0 000 2.9l8.88 3.32v10.15c0 .31.1.62.28.88.1.14 1.02 1.42 3.4 2.63 3 1.53 6.94 2.3 11.7 2.3 4.77 0 8.72-.77 11.77-2.3 2.4-1.2 3.36-2.47 3.46-2.6.19-.27.3-.59.3-.91V15.22l3.7-1.35v12.85l-4.03 4.07a1.55 1.55 0 000 2.18l4.03 4.07v3.42c0 .85.68 1.54 1.52 1.54s1.53-.69 1.53-1.54v-3.42l4.02-4.07c.6-.6.6-1.57 0-2.18zM25.58 3.17l19.58 7.16-19.9 7.26-19.3-7.24 19.62-7.18zm12.15 21.47c-5.21 4.74-20.69 4.2-24.81.02v-8.41l11.8 4.42c.2.03.37.2 1.05 0l11.96-4.35v8.32zM46 34.23l-2.32-2.35L46 29.54l2.32 2.34L46 34.23z"/></symbol><symbol viewBox="0 0 16 16" id="info_svg" xmlns="http://www.w3.org/2000/svg"><path d="M8 0a8 8 0 110 16A8 8 0 018 0zm0 6.545a.727.727 0 00-.727.728v4a.727.727 0 101.454 0v-4A.727.727 0 008 6.545zm0-3.127A.945.945 0 108 5.31a.945.945 0 000-1.89z"/></symbol><symbol viewBox="0 0 20 20" id="insta_svg" xmlns="http://www.w3.org/2000/svg"><path fill-rule="evenodd" d="M15 0H5C2.25 0 0 2.25 0 5v10c0 2.75 2.25 5 5 5h10c2.75 0 5-2.25 5-5V5c0-2.75-2.25-5-5-5zm-5 14.17a4.17 4.17 0 110-8.34 4.17 4.17 0 010 8.34zm5.42-8.34a1.25 1.25 0 110-2.5 1.25 1.25 0 010 2.5z"/></symbol><symbol viewBox="0 0 20 20" id="key_svg" xmlns="http://www.w3.org/2000/svg"><path d="M18.12 1.88A6.45 6.45 0 007.43 8.43L.17 15.69a.59.59 0 00-.17.4v3.32c0 .33.26.59.59.59H3.9c.16 0 .3-.06.41-.17l.83-.83c.13-.13.2-.3.17-.48l-.1-.9 1.23-.1c.28-.04.5-.26.53-.54l.12-1.23.89.1c.16.02.33-.03.45-.14.13-.11.2-.27.2-.44v-1.09H9.7c.16 0 .3-.06.42-.17l1.5-1.48c2.3.74 4.78.19 6.5-1.53a6.45 6.45 0 000-9.12zm-1.66 4.15a1.76 1.76 0 11-2.49-2.5 1.76 1.76 0 012.49 2.5z"/></symbol><symbol viewBox="0 0 32 50" id="kreml_svg" xmlns="http://www.w3.org/2000/svg"><path d="M32 35.25c-.07-1.94-2.84-1.94-2.9 0v1.66l-1.22-1.09c-.55-.5-1.39-.5-1.94 0l-1.21 1.09V15.72c0-.8-.65-1.46-1.46-1.46h-1.83L17.39 1.03a1.46 1.46 0 00-2.78 0l-4.05 13.23H8.73c-.8 0-1.46.65-1.46 1.46v21.19l-1.21-1.09c-.55-.5-1.39-.5-1.94 0l-1.21 1.09v-1.66a1.46 1.46 0 10-2.9 0L0 48.54C0 49.34.65 50 1.45 50c.8 0 1.46-.66 1.46-1.46V45.6h26.18v2.93c.07 1.94 2.84 1.94 2.91 0V35.25zm-21.82-8.1c1.73 5.82 9.91 5.82 11.64 0v9.76l-1.22-1.09c-.55-.5-1.38-.5-1.93 0l-1.22 1.09v-1.66c0-.8-.65-1.46-1.45-1.46-.8 0-1.45.66-1.45 1.46v1.66l-1.22-1.09c-.55-.5-1.38-.5-1.93 0l-1.22 1.09v-9.77zm2.67-1.71A3.17 3.17 0 0116 22.27c4.18.16 4.17 6.18 0 6.34a3.17 3.17 0 01-3.15-3.17zm4.6 15.4l2.19-1.96 2.18 1.95v1.85h-4.37v-1.85zM16 6.43l2.4 7.82h-4.8L16 6.44zm5.82 10.75v6.54c-1.73-5.83-9.91-5.82-11.64 0V17.2h11.64zM2.9 42.68v-1.85l2.18-1.95 2.18 1.95v1.85H2.91zm7.27-1.85l2.18-1.95 2.19 1.95v1.85h-4.37v-1.85zm14.55 1.85v-1.85l2.18-1.95 2.18 1.95v1.85h-4.36z"/></symbol><symbol viewBox="0 0 78.91 57.9" id="l2_svg" xmlns="http://www.w3.org/2000/svg"><g data-name="Layer 1"><path d="M52.83 22.88a26.08 26.08 0 0018.57 7.69l3.21-.13a18.35 18.35 0 00-26.8-25l-6.23 6.19z"/><path d="M5.38 5.39a18.37 18.37 0 0126 0l19.49 19.49a29.09 29.09 0 0020.58 8.52h.31L52.58 52.53a18.42 18.42 0 01-26 0L5.38 31.34a18.35 18.35 0 010-25.94z" fill-rule="evenodd"/></g></symbol><symbol viewBox="0 0 57.9 78.9" id="l_svg" xmlns="http://www.w3.org/2000/svg"><path d="M22.9 26.1a26.3 26.3 0 007.7-18.6l-.1-3.2A18.5 18.5 0 004.6 6.5c-6 7.2-5.7 17.8.9 24.5l6.2 6.2 11.2-11.1z"/><path fill-rule="evenodd" d="M5.4 73.5a18.3 18.3 0 010-26L24.9 28a29 29 0 008.5-20.6v-.3l19.1 19.2a18.3 18.3 0 010 26L31.3 73.5a18.2 18.2 0 01-25.9 0z" clip-rule="evenodd"/></symbol><symbol viewBox="0 0 12 17" id="loc_svg" xmlns="http://www.w3.org/2000/svg"><path d="M6 0C2.7 0 0 2.76 0 6.16c0 4.21 5.37 10.4 5.6 10.66.21.24.59.24.8 0 .23-.27 5.6-6.45 5.6-10.66A6.1 6.1 0 006 0zm0 9.25a3.06 3.06 0 01-3.02-3.1c0-1.7 1.36-3.1 3.02-3.1a3.06 3.06 0 013.02 3.1c0 1.71-1.36 3.1-3.02 3.1z"/></symbol><symbol viewBox="0 0 50 50" id="love_svg" xmlns="http://www.w3.org/2000/svg"><path d="M48.284 10.436A6.149 6.149 0 0050 6.172 6.179 6.179 0 0043.828 0a6.179 6.179 0 00-6.172 6.172 6.18 6.18 0 003.693 5.65 4.577 4.577 0 00-.555 2.195v4.811h-4.018c-.976-1.951-2.948-3.137-5.5-3.137a5.287 5.287 0 00-3.138 1.002 5.288 5.288 0 00-3.137-1.002c-3.692 0-6.173 2.48-6.173 6.17 0 .565.054 1.123.16 1.674h-3.506v-1.673c0-.794-.202-1.541-.557-2.194a6.18 6.18 0 003.695-5.651 6.179 6.179 0 00-6.172-6.172 6.179 6.179 0 00-6.172 6.172c0 1.653.654 3.155 1.716 4.264a4.614 4.614 0 00-1.55 2.361 7.798 7.798 0 00-4.977-1.814 1.464 1.464 0 10.001 2.93 4.816 4.816 0 014.81 4.81v2.697C2.572 31.002 0 34.767 0 39.121 0 45.12 4.88 50 10.879 50c3.754 0 7.07-1.911 9.025-4.811l.508 3.553A1.465 1.465 0 0021.862 50h6.276c.891 0 1.576-.79 1.45-1.672L28.02 37.345a1.465 1.465 0 00-1.45-1.258h-5.242a10.847 10.847 0 00-1.642-3.346h3.746c.809 0 1.465-.656 1.465-1.465v-.071c1.51.962 2.713 1.437 2.73 1.443a1.464 1.464 0 001.045-.008c.071-.028 4-1.593 6.565-4.813.219.13.474.207.747.207h4.811v20.501c0 .81.656 1.465 1.465 1.465h6.276c.81 0 1.465-.656 1.465-1.465V14.017c0-1.446-.67-2.737-1.716-3.581zM25.3 39.016l1.15 8.054h-3.317l-1.15-8.053H25.3zm-12.852-28.24a3.246 3.246 0 013.242 3.242 3.246 3.246 0 01-3.242 3.242 3.246 3.246 0 01-3.242-3.242 3.246 3.246 0 013.242-3.242zm-1.57 36.295c-4.382 0-7.948-3.566-7.948-7.949s3.566-7.95 7.949-7.95 7.95 3.567 7.95 7.95-3.567 7.95-7.95 7.95zm11.088-17.259h-5.464a10.813 10.813 0 00-5.623-1.569c-.569 0-1.128.044-1.673.129v-6.509a1.674 1.674 0 013.346 0V25c0 .809.656 1.465 1.465 1.465h7.95v3.346zm6.172-.143a16.36 16.36 0 01-3.242-2.082V25c0-.809-.656-1.465-1.465-1.465H22a5.917 5.917 0 01-.242-1.673c0-.975.316-3.241 3.243-3.241 1.234 0 1.881.865 1.926.927a1.465 1.465 0 002.422 0 2.445 2.445 0 011.926-.927c2.927 0 3.243 2.266 3.243 3.24 0 4.321-4.723 7.002-6.38 7.807zM47.07 47.07h-3.346V27.893a7.71 7.71 0 003.346-1.543v20.72zm0-26.777a4.817 4.817 0 01-4.81 4.811h-4.812v-3.346h4.811c.81 0 1.465-.656 1.465-1.465v-6.276a1.673 1.673 0 013.346 0v6.276zM43.828 9.414a3.246 3.246 0 01-3.242-3.242 3.246 3.246 0 013.242-3.242 3.246 3.246 0 013.242 3.242 3.246 3.246 0 01-3.242 3.242z"/></symbol><symbol viewBox="0 0 20 20" id="minus_svg" xmlns="http://www.w3.org/2000/svg"><path d="M4.17 10h11.66"/></symbol><symbol viewBox="0 0 40 40" id="mos_svg" xmlns="http://www.w3.org/2000/svg"><path d="M19.17 16.66c.46-.46 1.2-.46 1.66 0l3.56 3.57 3.57-3.57a1.17 1.17 0 012 .83v21.34c0 .65-.53 1.17-1.17 1.17H11.2c-.64 0-1.17-.52-1.17-1.17V17.49a1.17 1.17 0 012-.83l3.57 3.57zM.56 29.04c.34-.2.77-.23 1.14-.05l4.5 2.25 1.5-.75v8.34c0 .4.07.8.2 1.17H1.17C.53 40 0 39.48 0 38.83v-8.79c0-.4.21-.78.56-1zM38.3 29a1.17 1.17 0 011.7 1.05v8.79c0 .65-.52 1.17-1.17 1.17H32.1c.13-.37.2-.76.2-1.17V30.5l1.5.75zM20 25.1a4.94 4.94 0 10.01 9.89A4.94 4.94 0 0020 25.1zm0 2.35a2.6 2.6 0 110 5.2 2.6 2.6 0 010-5.2zM20 0c.65 0 1.17.52 1.17 1.17v2.24l5.6 11.2c-.16.11-.32.25-.47.4l-1.9 1.9-1.91-1.9a3.5 3.5 0 00-4.98 0l-1.9 1.9-1.91-1.9c-.15-.15-.3-.29-.47-.4l5.6-11.2V1.17C18.83.52 19.35 0 20 0z"/></symbol><symbol viewBox="0 0 50 44" id="note_svg" xmlns="http://www.w3.org/2000/svg"><path d="M30.86 0c.808 0 1.464.657 1.464 1.467v1.466h4.395c.809 0 1.465.657 1.465 1.467v4.4h7.421c.81 0 1.465.657 1.465 1.467V35.2h1.465c.81 0 1.465.657 1.465 1.467V39.6c0 2.426-1.971 4.4-4.395 4.4H4.395A4.402 4.402 0 010 39.6v-2.933c0-.81.656-1.467 1.465-1.467H2.93V10.267c0-.81.656-1.467 1.465-1.467h7.421V4.4c0-.81.656-1.467 1.465-1.467h4.395V1.467a1.466 1.466 0 112.93 0v1.466h2.93V1.467a1.466 1.466 0 112.929 0v1.466h2.93V1.467c0-.81.655-1.467 1.464-1.467zm16.21 38.133H2.93V39.6c0 .809.657 1.467 1.465 1.467h41.21c.808 0 1.465-.658 1.465-1.467v-1.467zm-35.254-26.4H5.86V35.2h38.282V11.733h-5.957V30.8c0 .81-.656 1.467-1.465 1.467H13.28a1.466 1.466 0 01-1.465-1.467V11.733zm5.86-5.866h-2.93v23.466h20.508V5.867h-2.93v1.466a1.466 1.466 0 11-2.93 0V5.867h-2.93v1.466a1.466 1.466 0 11-2.929 0V5.867h-2.93v1.466a1.466 1.466 0 11-2.93 0V5.867zm13.183 17.6a1.466 1.466 0 010 2.933H19.141a1.466 1.466 0 010-2.933zm0-5.867a1.466 1.466 0 010 2.933H19.141a1.466 1.466 0 010-2.933zm0-5.867a1.466 1.466 0 010 2.934H19.141a1.466 1.466 0 010-2.934z"/></symbol><symbol viewBox="0 0 16 16" id="phone_svg" xmlns="http://www.w3.org/2000/svg"><path d="M15.49 11.52c-.05-.03-3.22-2.32-4.1-2.16-.41.07-.65.36-1.13.93l-.4.46a7.3 7.3 0 01-4.61-4.61l.47-.4c.56-.48.85-.72.92-1.13C6.8 3.74 4.51.55 4.48.5c-.2-.3-.54-.48-.9-.51C2.64 0 0 3.43 0 4.01c0 .03.05 3.45 4.26 7.73 4.28 4.21 7.7 4.26 7.73 4.26.58 0 4.01-2.65 4.01-3.57-.03-.37-.22-.7-.51-.91z"/></symbol><symbol viewBox="0 0 41 50" id="picture_svg" xmlns="http://www.w3.org/2000/svg"><path d="M24.623.025c.796-.15 1.56.375 1.709 1.17l.874 4.665h12.33c.808 0 1.464.655 1.464 1.465v26.474a1.468 1.468 0 01-1.464 1.455h-6.84l2.422 13.013a1.465 1.465 0 11-2.879.536l-.868-4.663H9.629l-.868 4.663a1.464 1.464 0 11-2.88-.536l2.424-13.013h-6.84A1.47 1.47 0 010 33.789V7.325c0-.81.656-1.465 1.464-1.465h12.33l.874-4.665a1.464 1.464 0 112.878.54l-.773 4.125h7.454l-.773-4.125a1.465 1.465 0 011.169-1.71zm5.093 35.229H11.283l-1.108 5.957h20.65l-1.109-5.957zm-1.895-14.649c-1.91 0-3.77 2.16-4.993 3.972-1.452 2.15-2.572 4.63-3.206 6.18.215.602.388 1.136.52 1.567h17.154c-.631-1.366-1.567-3.26-2.694-5.134-2.514-4.185-4.986-6.585-6.78-6.585zm-17.57 2.93c-3.174 0-5.663 5.373-6.82 8.789h13.638c-1.157-3.416-3.646-8.789-6.819-8.789zM38.07 8.79H2.93v17.399c2.092-3.705 4.55-5.583 7.321-5.583 2.986 0 5.61 2.181 7.802 6.48.638-1.32 1.43-2.788 2.349-4.148 2.358-3.491 4.854-5.261 7.42-5.261 3.934 0 7.285 4.66 9.31 8.035.33.552.645 1.103.94 1.641V8.79zm-21.964 3.027a4.399 4.399 0 014.393 4.395 4.399 4.399 0 01-4.393 4.394 4.398 4.398 0 01-4.393-4.394 4.398 4.398 0 014.393-4.395zm0 2.93a1.466 1.466 0 000 2.93 1.466 1.466 0 000-2.93z"/></symbol><symbol viewBox="0 0 20 20" id="plus_svg" xmlns="http://www.w3.org/2000/svg"><path d="M10 4.17v11.66M4.17 10h11.66"/></symbol><symbol viewBox="0 0 50 50" id="psych_svg" xmlns="http://www.w3.org/2000/svg"><path d="M49.19 40.94l-4.98-2.5.09-.15c4.68-7.25 2.2-10.17-1.38-16.58-.76-3.39-1.01-7.02-.77-10.89-.54-14.43-21.2-14.42-21.75 0 0 6.06-.26 9.69-.77 10.9-1.16 2.5-3.28 4.92-3.82 8.06h-.57a4.61 4.61 0 00-8.72 0H1.46c-.8 0-1.46.66-1.46 1.47v17.28C0 49.34.66 50 1.46 50h47.08c.8 0 1.46-.66 1.46-1.47v-6.28c0-.56-.31-1.07-.81-1.31zM23.33 10.82c.4-10.55 15.5-10.54 15.9 0v.1a24.87 24.87 0 00-7.95-1.32c-2.67 0-5.32.44-7.95 1.33v-.1zm0 3.04a26 26 0 018-1.32c2.62 0 5.25.44 7.9 1.32v4.82c-.4 10.55-15.5 10.54-15.9 0v-4.82zm10.43 22.63l.65.32a3.25 3.25 0 01-6.26 0l.64-.32c.5-.25.81-.76.81-1.31v-5.74c1.09.18 2.26.18 3.35 0v5.74c0 .55.31 1.06.8 1.31zM9.2 31.25c.08-2.22 3.26-2.22 3.34 0v1.67H9.21v-1.67zm9.62 15.82H2.93V32.72h3.35v1.67c0 .81.65 1.47 1.46 1.47h6.28c.8 0 1.46-.66 1.46-1.47v-1.67h3.35v14.35zm2.93 0V40l3.34-1.67v8.73h-3.34zm4.91-12.8l-4.91 2.46v-5.48c0-.81-.66-1.47-1.47-1.47H18.8c.5-1.95 1.86-3.76 2.96-5.8a10.96 10.96 0 004.9 4.57v5.72zm7.85 12.8h-6.49v-5.85a6.21 6.21 0 006.49 0v5.85zm1.36-18.52a10.96 10.96 0 004.9-4.57c3.18 5.36 4.63 7.22 1 12.8l-.2.35-5.7-2.86v-5.72zm11.19 18.52h-9.62v-8.73l9.62 4.81v3.92z"/></symbol><symbol viewBox="0 0 39 55" id="qual_svg" xmlns="http://www.w3.org/2000/svg"><path d="M28.3 41.1v8.48l4 1.7v-12.4a23 23 0 01-4 2.22zM6.7 38.87V51.2l4-1.69v-8.4c-1.4-.6-2.74-1.35-4-2.23zm12.8 4.03a22.5 22.5 0 01-5.6-.7V55l5.6-2.37L25.1 55V42.2c-1.83.47-3.71.7-5.6.7zm0-42.9C8.75 0 0 8.9 0 19.82c0 10.94 8.75 19.83 19.5 19.83S39 30.75 39 19.82C39 8.9 30.25 0 19.5 0zm0 35.46c-8.52 0-15.46-7.05-15.46-15.72 0-8.66 6.94-15.71 15.46-15.71s15.46 7.05 15.46 15.71c0 8.67-6.94 15.72-15.46 15.72zm0-28.18A12.38 12.38 0 007.24 19.74c0 6.88 5.5 12.47 12.26 12.47s12.26-5.6 12.26-12.47c0-6.87-5.5-12.46-12.26-12.46zm5.04 19.74l-5.04-2.7-5.04 2.7.96-5.7-4.07-4.05 5.63-.83 2.52-5.19 2.52 5.2 5.63.82-4.07 4.04.96 5.7z"/></symbol><symbol viewBox="0 0 46 51" id="quote_svg" xmlns="http://www.w3.org/2000/svg"><path fill-rule="evenodd" d="M16 26.5L9.8 51H0V0h16v26.5zm30 0L39.8 51H30V0h16v26.5z"/></symbol><symbol viewBox="0 0 36 50" id="rehab_svg" xmlns="http://www.w3.org/2000/svg"><path d="M7.99 14.48a4.91 4.91 0 018.36 3.45v4.55c0 1.16-.03 2.33-.12 3.5h8.32c2.7 0 4.9 2.2 4.9 4.9v7.7c0 .62-.1 1.2-.32 1.74 3.9.63 6.87 4 6.87 8.05 0 .9-.73 1.63-1.64 1.63H14.73c-.9 0-1.64-.73-1.64-1.63a8.17 8.17 0 016.87-8.05 4.85 4.85 0 01-.32-1.73v-2.72h-5.2A43.22 43.22 0 019 47.82a4.92 4.92 0 01-6.81 1.36 4.87 4.87 0 01-1.36-6.79 34.01 34.01 0 004.54-10.56l-3.93-3.91a4.87 4.87 0 010-6.92zm19.83 29h-6.55a4.93 4.93 0 00-4.63 3.27h15.8a4.93 4.93 0 00-4.62-3.27zm-19.8-9a36.33 36.33 0 01-4.47 9.72c-.5.76-.3 1.76.45 2.26.76.5 1.77.3 2.27-.45a39.48 39.48 0 004.76-10.16 4.88 4.88 0 01-3-1.37zm16.53-5.24h-8.5c.4 1.08.42 2.3.03 3.38h5.2c.9 0 1.62.72 1.62 1.62v4.35a1.64 1.64 0 003.28 0v-7.71c0-.9-.73-1.64-1.63-1.64zm-11.46-11.3a1.64 1.64 0 00-2.77-1.17h-.01l-.02.02-.01.01-.2.2-.17.17-.14.14-.24.24-.2.2-.26.25-.09.1-.3.3-.22.22-.37.37-.14.13-.28.28-1.37 1.36-.4.4c-.62.63-1.33 1.34-2.15 2.14a1.62 1.62 0 000 2.31l6.55 6.52a1.64 1.64 0 002.8-1.15c0-.44-.18-.85-.49-1.15L8.38 25.6a1.63 1.63 0 010-2.3 1.64 1.64 0 012.32 0l2.28 2.27c.07-1.04.11-2.08.11-3.1zM13.1 0c3.61 0 6.55 2.93 6.55 6.52a6.54 6.54 0 01-13.1 0C6.55 2.92 9.49 0 13.1 0zm0 3.26a3.27 3.27 0 00-3.27 3.26 3.27 3.27 0 006.55 0c0-1.8-1.47-3.26-3.28-3.26z"/></symbol><symbol viewBox="0 0 489.533 489.533" id="reload_svg" xmlns="http://www.w3.org/2000/svg"><path d="M268.175 488.161c98.2-11 176.9-89.5 188.1-187.7 14.7-128.4-85.1-237.7-210.2-239.1v-57.6c0-3.2-4-4.9-6.7-2.9l-118.6 87.1c-2 1.5-2 4.4 0 5.9l118.6 87.1c2.7 2 6.7.2 6.7-2.9v-57.5c87.9 1.4 158.3 76.2 152.3 165.6-5.1 76.9-67.8 139.3-144.7 144.2-81.5 5.2-150.8-53-163.2-130-2.3-14.3-14.8-24.7-29.2-24.7-17.9 0-31.9 15.9-29.1 33.6 17.4 109.7 118.7 192 236 178.9z"/></symbol><symbol viewBox="0 0 20 20" id="search_svg" xmlns="http://www.w3.org/2000/svg"><path d="M8.05 16.1c1.79 0 3.52-.6 4.93-1.7l5.32 5.32a1 1 0 001.42-1.42l-5.32-5.32a8.05 8.05 0 10-6.35 3.11zM3.77 3.76a6.05 6.05 0 110 8.55 6.03 6.03 0 010-8.55z"/></symbol><symbol viewBox="0 0 43 48" id="sert_svg" xmlns="http://www.w3.org/2000/svg"><path d="M22 11v4.5m0 0V20m0-4.5h-4m4 0h4M13 28h2.1M30 28h-8.5M15 37h13M2 28.4v-8.8c0-8.3 0-12.4 2.5-15C7.1 2 11.2 2 19.3 2h4.3c8.2 0 12.3 0 14.8 2.6 1.4 1.4 2 3.4 2.3 6.2m.3 8.8v8.8c0 8.3 0 12.4-2.5 15C35.9 46 31.8 46 23.7 46h-4.3c-8.2 0-12.3 0-14.8-2.6-1.4-1.4-2-3.4-2.3-6.2"/></symbol><symbol viewBox="0 0 50 50" id="set_svg" xmlns="http://www.w3.org/2000/svg"><path d="M26.78 0a4.892 4.892 0 014.887 4.887v.215a1.593 1.593 0 002.698 1.12l.152-.152a4.892 4.892 0 016.91 0l2.518 2.517a4.897 4.897 0 010 6.911l-.152.152a1.54 1.54 0 00-.333 1.683c.229.598.8.995 1.44 1h.213A4.892 4.892 0 0150 23.22v3.56a4.892 4.892 0 01-4.887 4.887H44.9a1.54 1.54 0 00-1.423.966 1.558 1.558 0 00.308 1.725l.152.152a4.897 4.897 0 010 6.912l-2.519 2.515a4.892 4.892 0 01-6.91 0l-.151-.152a1.593 1.593 0 00-2.69 1.113v.215A4.892 4.892 0 0126.78 50h-3.56a4.892 4.892 0 01-4.895-4.895v-.215a1.537 1.537 0 00-.965-1.422 1.56 1.56 0 00-1.725.309l-.152.151a4.89 4.89 0 01-6.911 0l-2.517-2.515a4.897 4.897 0 010-6.911l.152-.152a1.54 1.54 0 00.333-1.683 1.557 1.557 0 00-1.44-1h-.213A4.892 4.892 0 010 26.78v-3.56a4.892 4.892 0 014.887-4.887H5.1a1.54 1.54 0 001.423-.965 1.558 1.558 0 00-.308-1.725l-.152-.151a4.897 4.897 0 010-6.912L8.59 6.063a4.892 4.892 0 016.91 0l.143.152a1.593 1.593 0 002.69-1.113v-.215A4.892 4.892 0 0123.22 0zm0 3.333h-3.56a1.555 1.555 0 00-1.553 1.554v.215a4.928 4.928 0 01-8.382 3.47l-.15-.152a1.553 1.553 0 00-2.197 0l-2.516 2.518a1.555 1.555 0 000 2.197l.15.152a4.927 4.927 0 01-3.472 8.38h-.213c-.858 0-1.553.695-1.554 1.553v3.56a1.555 1.555 0 001.554 1.553H5.1a4.927 4.927 0 013.473 8.382l-.151.152a1.557 1.557 0 000 2.198l2.516 2.515c.608.605 1.59.605 2.197 0l.152-.152a4.918 4.918 0 018.38 3.47v.215c0 .858.695 1.553 1.553 1.554h3.56a1.555 1.555 0 001.553-1.554v-.215a4.928 4.928 0 018.38-3.471l.15.151c.607.607 1.59.607 2.197 0l2.518-2.515a1.557 1.557 0 000-2.198l-.15-.152a4.927 4.927 0 013.472-8.38h.213c.858 0 1.553-.695 1.554-1.553v-3.56a1.555 1.555 0 00-1.554-1.553H44.9a4.927 4.927 0 01-3.473-8.38l.151-.152a1.555 1.555 0 000-2.197L39.062 8.42a1.553 1.553 0 00-2.197 0l-.152.152a4.927 4.927 0 01-8.38-3.47v-.215c0-.858-.695-1.553-1.553-1.554zm-1.78 10c6.44.008 11.66 5.227 11.667 11.667 0 6.443-5.224 11.667-11.667 11.667S13.333 31.443 13.333 25 18.557 13.333 25 13.333zm0 3.334a8.333 8.333 0 100 16.666A8.343 8.343 0 0033.333 25 8.333 8.333 0 0025 16.667z"/></symbol><symbol viewBox="0 0 40 40" id="spb_svg" xmlns="http://www.w3.org/2000/svg"><path d="M11.79 21.17v5.35l2.35-.9v-4.45h2.34v3.59l2.35-.9v-2.69h2.33v2.7l2.36.89v-3.59h2.33v4.45l2.35.9v-5.35h4.68v7.1l6.37 2.35c.52.2.84.75.73 1.31-.1.56-.59.96-1.15.96h-1.18v4.77h1.17c.66 0 1.18.51 1.18 1.17 0 .65-.52 1.17-1.17 1.17H1.17C.52 40 0 39.48 0 38.83c0-.66.52-1.17 1.17-1.17h1.17v-4.77H1.17a1.175 1.175 0 01-.42-2.27l6.36-2.35v-7.1h4.68zm4.7 11.72H9.44v4.77h7.03v-4.77zm14.06 0H23.5v4.77h7.04v-4.77zM20 7.11c6.45 0 12.15 4.77 12.78 11.72H7.22A12.76 12.76 0 0120 7.1zM18.9.67c.36-.9 1.84-.9 2.2 0l1.63 4.35a15.38 15.38 0 00-5.46 0z"/></symbol><symbol viewBox="0 0 19.5 19.5" id="star2_svg" xmlns="http://www.w3.org/2000/svg"><path d="M10.2.8l2.5 5.8 6.3.6c.5 0 .6.6.3.8l-4.8 4.2 1.4 6.2c.1.4-.3.8-.7.6l-5.5-3.3L4.3 19a.5.5 0 01-.8-.6L5 12.2.2 8a.5.5 0 01.3-.8l6.3-.6L9.3.8c.2-.5.7-.5.9 0z"/></symbol><symbol viewBox="0 0 487.2 487.2" id="star_svg" xmlns="http://www.w3.org/2000/svg"><path d="M486.6 186.8a13.6 13.6 0 00-11-9.2l-152-21.6-68.3-137.5a13.5 13.5 0 00-24.2.1l-67.5 138-152 22.5c-5.1.8-9.3 4.3-11 9.2s-.1 10.3 3.6 13.8l110.3 107L89 460.3a13.3 13.3 0 005.4 13.2 13.4 13.4 0 0014.2 1l135.7-71.9 136 71.1a13.6 13.6 0 0019.3-15.1l-26.2-150.5L483 200.7c3.9-3.6 5.2-9 3.6-13.9zM349.6 294a13.3 13.3 0 00-3.8 12l22.9 131.3-118.2-61.7c-4-2-8.6-2-12.6 0L120 438l22-131.5c.8-4.4-.6-8.8-3.8-11.9l-95.6-92.8 131.9-19.6c4.4-.7 8.2-3.4 10-7.4L243.4 55l59.4 119.4c2 4 5.8 6.7 10.2 7.4l132 18.8-95.3 93.3z"/></symbol><symbol viewBox="0 0 46 46" id="sup_svg" xmlns="http://www.w3.org/2000/svg"><path d="M27.03 0a3.44 3.44 0 013.44 3.26v39.3A3.44 3.44 0 0127.21 46H3.44A3.44 3.44 0 010 42.74V3.44A3.44 3.44 0 013.26 0h23.77zM6.81 2.95H3.44a.5.5 0 00-.48.41l-.01.08v30.77h21.43v2.94H2.95v5.41c0 .24.18.45.41.48l.08.01h23.59a.5.5 0 00.48-.41l.01-.08V3.44a.5.5 0 00-.41-.48l-.08-.01h-3.42l-.9 3.2a2.98 2.98 0 01-2.68 2.1h-9.47a2.98 2.98 0 01-2.8-1.94l-.06-.2-.89-3.16zM17.7 38.63v2.95h-4.91v-2.95h4.91zm4.29-26.15a3.38 3.38 0 013.38 3.38v8.59a3.34 3.34 0 01-3.38 3.37h-9.93c-.1 0-.2.05-.27.1l-4.4 3.35-.06.04-.1.05-.12.06-.14.05-.08.02-.16.04c-.64.13-1.51 0-1.7-1.43V15.86a3.38 3.38 0 013.37-3.38h13.59zm0 2.95H8.39a.41.41 0 00-.43.43v11.26L10 25.57c.61-.46 1.32-.7 2.05-.7h9.93c.25 0 .43-.17.43-.42v-8.6a.41.41 0 00-.43-.42zm-5.17 1.28v1.97h1.87v2.94H16.8v1.97h-2.95v-1.97h-1.87v-2.94h1.87V16.7h2.95zm3.74-13.76H9.88l.65 2.33.02.02h9.35v-.02l.66-2.33zm23.98 3.24c.81 0 1.47.66 1.47 1.48v30.66c0 .82-.66 1.48-1.47 1.48H34.9v-2.95h8.16V9.14H34.9V6.2h9.64zM40.9 30.37v2.95h-8.36v-2.95h8.36zm0-5.9v2.95h-8.36v-2.95h8.36zm0-5.9v2.96h-8.36v-2.95h8.36zm0-5.9v2.96h-8.36v-2.95h8.36z"/></symbol><symbol viewBox="0 0 50 49" id="user2_svg" xmlns="http://www.w3.org/2000/svg"><path d="M15.95 21.64c.73 0 1.38.5 1.55 1.21l.5 1.95.67.27 1.75-1.04a1.61 1.61 0 011.96.23l2.83 2.78c.53.52.63 1.34.24 1.97l-1.05 1.7.27.64 2 .48a1.6 1.6 0 011.22 1.55v3.93c0 .74-.5 1.38-1.22 1.55l-2.02.48-.27.63 1.05 1.7c.39.63.29 1.45-.24 1.97l-2.84 2.78c-.52.5-1.32.6-1.95.23l-1.76-1.05c-.22.1-.44.18-.67.26l-.48 1.93A1.6 1.6 0 0115.92 49h-4a1.6 1.6 0 01-1.56-1.2l-.49-1.94-.67-.27-1.75 1.04c-.63.38-1.43.28-1.96-.23l-2.83-2.78a1.58 1.58 0 01-.24-1.97l1.06-1.7-.27-.64-1.98-.48A1.6 1.6 0 010 37.3v-3.94c0-.73.5-1.37 1.23-1.55l2-.47.26-.64L2.44 29c-.4-.63-.3-1.44.24-1.96l2.83-2.79c.52-.5 1.33-.6 1.96-.23l1.76 1.05c.22-.1.44-.18.67-.27l.48-1.94a1.6 1.6 0 011.56-1.21h4zm-1.26 3.18h-1.5l-.4 1.59c-.13.55-.56 1-1.12 1.15-.6.17-1.2.4-1.74.7-.5.28-1.11.27-1.6-.02l-1.45-.86-1.04 1.02.85 1.39c.3.49.32 1.1.03 1.61a8.7 8.7 0 00-.61 1.36L6 33.1c-.16.55-.6.97-1.17 1.1l-1.62.4v1.42l1.62.4c.56.13 1 .55 1.16 1.1.17.6.41 1.17.72 1.71.28.5.27 1.12-.03 1.61l-.86 1.4 1.04 1.02 1.44-.86c.5-.29 1.1-.3 1.6-.03a8.3 8.3 0 001.75.7c.55.16.98.6 1.12 1.15l.4 1.59h1.5l.4-1.58c.13-.55.56-1 1.12-1.15.61-.17 1.2-.4 1.74-.7.5-.27 1.11-.26 1.6.03l1.45.87 1.04-1.03-.85-1.38c-.3-.5-.32-1.12-.03-1.62.32-.57.57-1.15.73-1.7.16-.55.6-.98 1.17-1.1l1.64-.4v-1.43l-1.63-.39a1.6 1.6 0 01-1.17-1.1 7.96 7.96 0 00-.72-1.72c-.29-.5-.28-1.12.03-1.6l.85-1.4L21 27.4l-1.44.86c-.5.3-1.1.3-1.6.03a8.3 8.3 0 00-1.75-.71 1.6 1.6 0 01-1.12-1.15l-.4-1.6zm-.76 4.88a5.65 5.65 0 015.65 5.63 5.65 5.65 0 01-11.3 0c0-3.1 2.53-5.63 5.65-5.63zm0 3.18a2.45 2.45 0 100 4.9 2.45 2.45 0 000-4.9zm18.87-.43v3.19h-3v-3.19h3zM35.68 0c5 0 9.06 4.04 9.06 9.01 0 1.74-.5 3.37-1.36 4.75 3.97 2.51 6.5 6.89 6.62 11.65v6.77a3.46 3.46 0 01-3.27 3.45H35.04v-3.18h11.5c.11 0 .22-.09.25-.2v-6.49c0-3.99-2.17-7.66-5.6-9.6a9.04 9.04 0 01-3.54 1.65l-.36.07h-3.2a9.04 9.04 0 01-3.9-1.7 11.13 11.13 0 00-4.89 5.64l-.12.33-3.03-1.04A14.32 14.32 0 0128 13.77a8.92 8.92 0 01-1.37-4.76A9.04 9.04 0 0135.68 0zm0 3.18a5.85 5.85 0 00-5.85 5.83 5.85 5.85 0 0011.7 0 5.85 5.85 0 00-5.85-5.83z"/></symbol><symbol viewBox="0 0 16 18" id="user_svg" xmlns="http://www.w3.org/2000/svg"><path d="M4.5 9.7c.2-.05.42.01.58.14a4.86 4.86 0 005.84 0 .85.85 0 01.59-.15 5.76 5.76 0 014.46 3.4c.06.11.04.26-.06.38a9.4 9.4 0 01-2.41 2.7 9.14 9.14 0 01-11.96-.82 7.74 7.74 0 01-1.48-1.88.44.44 0 01-.02-.39A5.72 5.72 0 014.5 9.7zM8 0a4.67 4.67 0 010 9.35A4.67 4.67 0 018 0z"/></symbol><symbol viewBox="0 0 25 14" id="vk_svg" xmlns="http://www.w3.org/2000/svg"><path fill-rule="evenodd" d="M12.23 13.94h1.5s.45-.05.68-.3c.21-.22.2-.64.2-.64s-.03-1.96.9-2.25c.92-.29 2.1 1.9 3.35 2.74.94.64 1.66.5 1.66.5l3.34-.05s1.75-.1.92-1.45c-.07-.11-.49-1-2.49-2.82-2.09-1.9-1.8-1.6.71-4.9 1.54-2 2.15-3.24 1.96-3.76-.18-.5-1.31-.37-1.31-.37l-3.76.02s-.28-.03-.49.09c-.2.12-.33.4-.33.4s-.6 1.55-1.39 2.87c-1.67 2.8-2.34 2.94-2.61 2.77-.64-.4-.48-1.63-.48-2.5 0-2.7.42-3.82-.81-4.12-.41-.1-.71-.16-1.76-.17-1.34 0-2.47 0-3.12.32-.42.2-.75.66-.55.69.24.03.8.15 1.1.54.4.52.38 1.67.38 1.67s.22 3.19-.52 3.58c-.5.27-1.2-.28-2.7-2.81-.76-1.3-1.34-2.73-1.34-2.73s-.1-.27-.3-.41a1.46 1.46 0 00-.8-.23L.8.64S.28.66.08.88c-.17.2-.01.63-.01.63s2.8 6.42 5.96 9.66c2.9 2.97 6.2 2.77 6.2 2.77z"/></symbol><symbol viewBox="0 0 52 50" id="wheel_svg" xmlns="http://www.w3.org/2000/svg"><path d="M8.3 0a4.4 4.4 0 014.39 4.18v5.78h14.36a4.4 4.4 0 014.39 4.18v3.89a4.4 4.4 0 012.93 3.92v1.68h4.4c.67 0 1.24.45 1.41 1.09l.03.14 2.73 16.35h5.6a1.46 1.46 0 01.14 2.92l-.14.01H41.7c-.67 0-1.25-.45-1.42-1.08l-.03-.14-2.72-16.36h-7.06v2.96c2.12.24 3.8 2 3.9 4.16v10.95A5.38 5.38 0 0123.9 46.3l-.06-.22H13.8A7.33 7.33 0 112.72 37l.21-.17V33.9a4.4 4.4 0 014.18-4.4h.71v-2.96a4.4 4.4 0 01-3.9-4.15l-.01-.21V4.39A4.4 4.4 0 018.3 0zm-.98 38.28a4.4 4.4 0 10.01 8.8 4.4 4.4 0 000-8.8zM29 42.18a2.44 2.44 0 100 4.9 2.44 2.44 0 000-4.9zm-21.68-.97a1.46 1.46 0 110 2.93 1.46 1.46 0 010-2.93zm22.66-8.79H7.32c-.76 0-1.38.58-1.45 1.33l-.01.14v1.6a7.33 7.33 0 018.79 7.19v.24l-.02.24h9.2a5.38 5.38 0 017.37-3.43l.25.12v-5.96c0-.81-.66-1.47-1.47-1.47zm-2.44-5.86h-16.8v2.93h16.8v-2.93zM8.3 2.93c-.76 0-1.39.58-1.46 1.32v17.92c0 .76.58 1.38 1.32 1.46h23.29v-1.46c0-.76-.59-1.39-1.33-1.46H11.23c-.76 0-1.39-.59-1.46-1.33V4.39c0-.8-.66-1.46-1.47-1.46zm28.9 1.89l12.14 3.4c.73.2 1.28.82 1.4 1.57l.02.16c.04.7-.28 1.37-.88 1.76l-2.1 1.39 2.9 2.9a1.93 1.93 0 010 2.74l-1.94 1.94c-.37.37-.87.57-1.38.57h-.17a1.94 1.94 0 01-1.2-.56l-2.9-2.9-1.39 2.1a1.93 1.93 0 01-3.48-.54L34.82 7.2a1.94 1.94 0 012.38-2.39zm.3 2.68l2.8 9.99 2.4-3.64 4.67 4.67 1.15-1.15-4.67-4.67 3.63-2.4-9.98-2.8zm-10.45 5.4H12.7v4.87h15.82v-3.41c0-.81-.66-1.47-1.47-1.47z"/></symbol><symbol viewBox="0 0 37 50" id="woman_svg" xmlns="http://www.w3.org/2000/svg"><path d="M20.82 0c8.47 0 10.78 6.34 12 12.85l.1.54.15.8.09.54.08.53.09.53.12.79c.57 3.65 1.17 7.42 2.6 10.06.35.66.16 1.48-.44 1.9-.16.12-3.05 2.13-7.26 3.75l.37.13.74.26c1.47.54 2.9 1.07 3.8 1.47 2.1.9 3.74 3.4 3.74 5.7v8.69c0 .8-.65 1.46-1.45 1.46H1.45C.65 50 0 49.34 0 48.54v-8.7c0-2.3 1.64-4.8 3.73-5.7a97.8 97.8 0 014.92-1.85 36.09 36.09 0 01-7.26-3.75c-.6-.42-.8-1.24-.44-1.9 2.93-5.4 2.27-15.05 5.51-21.08C8.48 1.82 11.66 0 16.18 0zm-9.67 34.5l-1.5.54-.78.28a82.24 82.24 0 00-4 1.52 3.7 3.7 0 00-1.96 3v7.23h16.46v-4.28zm14.7 0l-5.3 5.34 1.3 1.31c.27.28.43.65.43 1.04v4.88h11.81v-7.23a3.7 3.7 0 00-1.96-3c-.93-.4-2.45-.96-4-1.52l-.78-.28-1.5-.53zm3.5 7c.8 0 1.45.66 1.45 1.47 0 .8-.65 1.46-1.45 1.46h-3.1c-.8 0-1.45-.65-1.45-1.46 0-.81.65-1.47 1.45-1.47zM21.7 29.01a9.13 9.13 0 01-6.4 0v3.02a1.46 1.46 0 01-1.08 1.42l4.28 4.32 4.28-4.32-.1-.03c-.58-.2-.98-.76-.98-1.39zm-.88-26.08h-4.64c-3.45 0-5.66 1.24-7.16 4.03C6.28 12.04 6.67 20.8 4.1 26.81c1.53.92 4.6 2.6 8.3 3.64v-3.2a9.29 9.29 0 01-3.1-6.94v-6.25c0-.65.43-1.23 1.05-1.4 4.83-1.4 6.97-4.14 7-4.17.59-.8 1.74-.78 2.31 0 .02.03 2.16 2.77 6.99 4.16.62.18 1.05.76 1.05 1.41v6.25c0 2.76-1.2 5.24-3.1 6.94v3.2a34.7 34.7 0 008.3-3.64c-2.58-6.02-2.18-14.77-4.92-19.85-1.5-2.79-3.7-4.03-7.16-4.03zm-2.32 8.56a17.96 17.96 0 01-6.3 3.65v5.17c0 3.5 2.83 6.35 6.3 6.35 3.47 0 6.3-2.85 6.3-6.35v-5.17a17.96 17.96 0 01-6.3-3.65z"/></symbol><symbol viewBox="0 0 68 48" id="yt_svg" xmlns="http://www.w3.org/2000/svg"><path class="buytp-large-play-button-bg" d="M66.52 7.74c-.78-2.93-2.49-5.41-5.42-6.19C55.79.13 34 0 34 0S12.21.13 6.9 1.55c-2.93.78-4.63 3.26-5.42 6.19C.06 13.05 0 24 0 24s.06 10.95 1.48 16.26c.78 2.93 2.49 5.41 5.42 6.19C12.21 47.87 34 48 34 48s21.79-.13 27.1-1.55c2.93-.78 4.64-3.26 5.42-6.19C67.94 34.95 68 24 68 24s-.06-10.95-1.48-16.26z"/><path d="M45 24L27 14v20"/></symbol><symbol viewBox="0 0 38 50" id="z_bell_svg" xmlns="http://www.w3.org/2000/svg"><path d="M37.82 42.09a25.89 25.89 0 01-2.72-11.51v-8.95A16.6 16.6 0 0024 5.83V5a5 5 0 10-10 0v.8A16.12 16.12 0 002.9 21.13v9.45c0 4-.93 7.93-2.71 11.5a1.67 1.67 0 001.5 2.42h10.6a6.86 6.86 0 0013.45 0h10.6a1.66 1.66 0 001.5-2.41h-.01zM19 3.33c.91 0 1.66.75 1.66 1.67h-3.33c0-.92.75-1.67 1.67-1.67zm0 43.34c-1.43 0-2.7-.86-3.26-2.17h6.51A3.54 3.54 0 0119 46.67zm-14.78-5.5a29.3 29.3 0 002-10.6v-9.43A12.82 12.82 0 0119.85 8.36c6.84.6 12.05 6.4 11.93 13.27v8.95c0 3.62.68 7.21 2 10.59H4.21z"/></symbol><symbol viewBox="0 0 47 50" id="z_box_svg" xmlns="http://www.w3.org/2000/svg"><path d="M47 10.64c0-.633-.38-1.205-.963-1.446L24.09.117a1.544 1.544 0 00-1.18 0L.963 9.194A1.564 1.564 0 000 10.64v28.718c0 .634.38 1.206.963 1.447l21.947 9.077c.374.154.795.158 1.179 0l21.948-9.077c.583-.24.963-.813.963-1.447V10.641zm-23.5 7.518l-8.086-3.344 17.475-7.675 8.627 3.568-18.016 7.45zM3.108 13.106l6.976 2.886v8.14a1.56 1.56 0 001.554 1.565c.858 0 1.554-.7 1.554-1.565v-6.855l8.754 3.62v25.205L3.108 38.31V13.106zM23.5 3.256l5.386 2.227-17.475 7.675-5.927-2.451L23.5 3.255zm1.554 17.642l18.838-7.792v25.205L25.054 46.1V20.899z"/></symbol><symbol viewBox="0 0 16 12" id="z_email_svg" xmlns="http://www.w3.org/2000/svg"><path d="M16 3.38V9.6a2.4 2.4 0 01-2.2 2.4H2.36A2.38 2.38 0 01.01 9.76L0 9.6V3.38l7.52 4.68a.89.89 0 00.83.06l.11-.06L16 3.38zM13.64 0c1.06 0 1.96.73 2.25 1.73l.03.15-7.91 4.93L.08 1.88A2.36 2.36 0 012.2.01L2.36 0h11.28z"/></symbol><symbol viewBox="0 0 19.1 19.1" id="z_insta_svg" xmlns="http://www.w3.org/2000/svg"><path d="M9.5.5c-8.3 0-9 .7-9 9v.2c0 8.3.7 9 9 9h.2c8.3 0 9-.6 9-9v-.1C18.6 1.2 18 .5 9.5.5c.1 0 0 0 0 0zM7.8 2.3h3.6c5 0 5.4.4 5.4 5.4v3.6c0 5.1-.4 5.4-5.4 5.4H7.8c-5.1 0-5.4-.4-5.4-5.4V7.8c-.1-5.1.3-5.5 5.4-5.5zm6.3 1.8c-.5 0-.9.4-.9.9s.4.9.9.9.9-.4.9-.9-.4-.9-.9-.9zM9.6 5C7 5 5 7.1 5 9.6s2 4.5 4.5 4.5 4.5-2 4.5-4.5C14.1 7 12.1 5 9.6 5zm0 1.8c1.5 0 2.7 1.2 2.7 2.7s-1.2 2.7-2.7 2.7c-1.5 0-2.7-1.2-2.7-2.7S8 6.8 9.6 6.8z"/></symbol><symbol viewBox="0 0 21 26" id="z_ok_svg" xmlns="http://www.w3.org/2000/svg"><path d="M10.43.2A6.4 6.4 0 004.1 6.66a6.4 6.4 0 006.33 6.46 6.4 6.4 0 006.34-6.46A6.4 6.4 0 0010.43.2zm0 9.66a3.2 3.2 0 01-3.16-3.23 3.2 3.2 0 013.16-3.23 3.2 3.2 0 013.17 3.23 3.2 3.2 0 01-3.17 3.23z"/><path d="M19.75 14.12a2.1 2.1 0 00-2.92-.84c-4.3 2.47-8.5 2.47-12.8 0a2.1 2.1 0 00-2.91.84c-.6 1.05-.22 2.4.81 2.97 1.48.86 2.98 1.47 4.49 1.89l-3.04 3.1a2.17 2.17 0 000 3.07c.84.87 2.2.87 3 0l4.05-4.12 4.05 4.12c.85.87 2.2.87 3.01 0 .85-.86.85-2.24 0-3.07l-3.04-3.1c1.5-.42 3.01-1.03 4.48-1.89a2.2 2.2 0 00.82-2.97z"/></symbol><symbol viewBox="0 0 50 50" id="z_setting_svg" xmlns="http://www.w3.org/2000/svg"><path d="M26.78 0a4.892 4.892 0 014.882 4.67l.005.217v.215a1.593 1.593 0 002.58 1.223l.118-.103.152-.152a4.892 4.892 0 016.733-.168l.177.168 2.518 2.517a4.897 4.897 0 01.168 6.734l-.168.177-.152.152a1.54 1.54 0 00-.333 1.683c.211.552.714.932 1.294.992l.146.008h.213a4.892 4.892 0 014.882 4.67l.005.217v3.56a4.892 4.892 0 01-4.67 4.882l-.217.005H44.9a1.54 1.54 0 00-1.423.966 1.558 1.558 0 00.21 1.616l.098.11.152.151a4.897 4.897 0 01.167 6.735l-.167.177-2.519 2.515a4.892 4.892 0 01-6.733.168l-.177-.168-.151-.152a1.593 1.593 0 00-2.68.97l-.01.143v.215a4.892 4.892 0 01-4.67 4.882L26.78 50h-3.56a4.892 4.892 0 01-4.888-4.636l-.007-.259v-.215a1.537 1.537 0 00-.965-1.422 1.56 1.56 0 00-1.616.211l-.109.098-.152.151a4.89 4.89 0 01-6.735.168l-.176-.168-2.517-2.515a4.897 4.897 0 01-.168-6.734l.168-.177.152-.152a1.54 1.54 0 00.333-1.683 1.557 1.557 0 00-1.294-.992l-.146-.008h-.213a4.892 4.892 0 01-4.882-4.67L0 26.78v-3.56a4.892 4.892 0 014.67-4.882l.217-.005H5.1a1.54 1.54 0 001.423-.965 1.558 1.558 0 00-.21-1.615l-.098-.11-.152-.151a4.897 4.897 0 01-.167-6.735l.167-.177L8.59 6.063a4.892 4.892 0 016.733-.168l.177.168.143.152a1.593 1.593 0 002.68-.97l.01-.143v-.215a4.892 4.892 0 014.67-4.882L23.22 0h3.56zm0 3.333h-3.56a1.555 1.555 0 00-1.547 1.412l-.006.142v.215a4.928 4.928 0 01-8.21 3.631l-.172-.161-.15-.152a1.554 1.554 0 00-2.079-.107l-.118.107-2.516 2.518a1.555 1.555 0 00-.107 2.079l.107.118.15.152a4.927 4.927 0 01-3.245 8.373l-.227.007h-.213c-.81 0-1.475.62-1.547 1.412l-.007.141v3.56c.001.81.621 1.475 1.412 1.547l.142.006H5.1a4.927 4.927 0 013.635 8.21l-.162.172-.151.152a1.557 1.557 0 00-.107 2.08l.107.118 2.516 2.515c.57.567 1.468.602 2.079.106l.118-.106.152-.152a4.918 4.918 0 018.373 3.243l.007.227v.215c0 .81.62 1.475 1.412 1.547l.141.007h3.56a1.555 1.555 0 001.547-1.412l.006-.142v-.215a4.928 4.928 0 018.208-3.633l.172.162.15.151a1.554 1.554 0 002.079.107l.118-.107 2.518-2.515c.568-.57.604-1.469.107-2.08l-.107-.118-.15-.152a4.927 4.927 0 013.245-8.373l.227-.007h.213c.81 0 1.475-.62 1.547-1.412l.007-.141v-3.56a1.555 1.555 0 00-1.412-1.547l-.142-.006H44.9a4.927 4.927 0 01-3.635-8.208l.162-.172.151-.152a1.555 1.555 0 00.107-2.079l-.107-.118-2.516-2.518a1.554 1.554 0 00-2.079-.107l-.118.107-.152.152a4.927 4.927 0 01-8.372-3.243l-.008-.227v-.215c0-.81-.62-1.475-1.412-1.547l-.141-.007zm-1.78 10c6.44.008 11.66 5.227 11.667 11.667 0 6.443-5.224 11.667-11.667 11.667S13.333 31.443 13.333 25 18.557 13.333 25 13.333zm0 3.334a8.333 8.333 0 100 16.666A8.343 8.343 0 0033.333 25 8.333 8.333 0 0025 16.667z"/></symbol><symbol viewBox="0 0 50 50" id="z_to_cart_svg" xmlns="http://www.w3.org/2000/svg"><path d="M5.3 0a6.38 6.38 0 016.36 6.15v2.18h36.67c.88 0 1.6.67 1.66 1.53L50 10v17.23a9.45 9.45 0 01-9.17 9.43H17.77a9.45 9.45 0 01-9.43-9.16V6.37a3.05 3.05 0 00-2.87-3.03h-3.8A1.67 1.67 0 011.52 0h3.77zm41.37 11.67h-35v15.56a6.1 6.1 0 005.88 6.1h23.02a6.11 6.11 0 006.1-5.88V11.67zM29.17 15c.87 0 1.58.67 1.66 1.52v7.79L33 22.15a1.67 1.67 0 012.46 2.24l-.1.12-4 4a3.09 3.09 0 01-4.22.13l-.14-.13-4-4a1.67 1.67 0 012.24-2.46l.11.1 2.16 2.16v-7.64c0-.92.75-1.67 1.67-1.67zM17.5 38.33a5.83 5.83 0 100 11.67 5.83 5.83 0 000-11.67zm0 8.34a2.5 2.5 0 110-5 2.5 2.5 0 010 5zm23.33-8.34a5.83 5.83 0 100 11.67 5.83 5.83 0 000-11.67zm0 8.34a2.5 2.5 0 110-5 2.5 2.5 0 010 5z"/></symbol><symbol viewBox="0 0 40 50" id="z_user_svg" xmlns="http://www.w3.org/2000/svg"><path d="M20 21.78c5.98 0 10.83-4.87 10.83-10.89C30.83 4.88 25.98 0 20 0A10.86 10.86 0 009.17 10.89c0 5.91 4.7 10.73 10.54 10.89H20zm0-18.44c4.15 0 7.5 3.38 7.5 7.55a7.53 7.53 0 01-7.5 7.55 7.53 7.53 0 01-7.5-7.55A7.54 7.54 0 0120 3.34zm0 22.73c-11.03 0-20 9.99-20 22.26C0 49.25.74 50 1.66 50c.92 0 1.66-.75 1.66-1.67C3.32 37.9 10.8 29.41 20 29.41s16.68 8.49 16.68 18.92c0 .92.74 1.67 1.66 1.67.92 0 1.66-.75 1.66-1.67 0-12.27-8.97-22.26-20-22.26z"/></symbol><symbol viewBox="0 0 20.5 20.5" id="z_what_svg" xmlns="http://www.w3.org/2000/svg"><path d="M10.4.5a9.7 9.7 0 00-9.7 9.7c0 1.7.4 3.4 1.3 4.8L.7 19.9l5.1-1.2c1.4.8 3 1.2 4.6 1.2a9.7 9.7 0 000-19.4zm0 1.9c2.1 0 4 .8 5.5 2.3a7.7 7.7 0 01-5.4 13.2c-1.3 0-2.6-.3-3.7-.9l-.8-.4-.7.2-1.9.4.5-1.7.2-.8-.4-.7c-.7-1.2-1-2.5-1-3.9 0-4.2 3.4-7.7 7.7-7.7zM7 5.7c-.2 0-.5.1-.7.3-.2.2-.8.8-.8 2s.9 2.3 1 2.5c.1.2 1.7 2.7 4.1 3.6 2 .8 2.5.6 2.9.6.4 0 1.4-.6 1.6-1.1.2-.6.2-1 .1-1.1-.1-.1-.2-.2-.5-.3l-1.6-.8c-.2-.1-.4-.1-.5.1-.2.2-.6.8-.8.9-.1.2-.3.2-.5.1s-1-.4-1.9-1.2c-.8-.6-1.2-1.4-1.4-1.7-.1-.2 0-.3.1-.4.1-.2.3-.3.4-.5.1-.1.2-.2.2-.4.1-.2 0-.3 0-.4 0-.1-.5-1.3-.7-1.8-.2-.4-.4-.4-.6-.4H7z"/></symbol><symbol viewBox="0 0 50 50" id="zclock_svg" xmlns="http://www.w3.org/2000/svg"><path d="M7.392 7.275c9.735-9.7 25.481-9.7 35.216 0 .022.02.049.025.07.047.022.021.029.05.049.071 9.698 9.735 9.698 25.479 0 35.214-.02.021-.027.05-.049.071-.021.022-.05.029-.071.049-9.735 9.698-25.479 9.698-35.214 0-.021-.02-.05-.027-.071-.049-.022-.021-.029-.05-.049-.071-9.698-9.735-9.698-25.479 0-35.214l.049-.071c.02-.022.048-.027.07-.047zm19.275-3.857V5a1.667 1.667 0 11-3.334 0V3.418A21.543 21.543 0 0010.922 8.56l1.106 1.107a1.668 1.668 0 11-2.356 2.361l-1.109-1.106a21.541 21.541 0 00-5.145 12.411H5a1.667 1.667 0 110 3.334H3.418A21.543 21.543 0 008.56 39.078l1.107-1.106a1.668 1.668 0 112.361 2.356l-1.106 1.107a21.543 21.543 0 0012.411 5.146V45a1.667 1.667 0 113.334 0v1.582a21.543 21.543 0 0012.411-5.142l-1.106-1.107a1.67 1.67 0 112.361-2.361l1.102 1.106a21.543 21.543 0 005.147-12.411H45a1.667 1.667 0 110-3.334h1.582a21.541 21.541 0 00-5.14-12.411l-1.109 1.106a1.668 1.668 0 11-2.361-2.356l1.106-1.107A21.543 21.543 0 0026.667 3.42zM25 11.668c.92 0 1.667.746 1.667 1.666V24.31l4.511 4.512a1.667 1.667 0 01-2.356 2.356l-5-5A1.667 1.667 0 0123.333 25V13.333c0-.92.747-1.666 1.667-1.666z"/></symbol><symbol viewBox="0 0 35 50" id="zpin_svg" xmlns="http://www.w3.org/2000/svg"><path d="M5.48 4.93a17.12 17.12 0 0124.05 0 17.49 17.49 0 01.62 24.25l-1.02 1.11a66.47 66.47 0 00-3.07 3.46l-.4.5c5.83 1.36 9.34 4.1 9.34 7.42C35 47.08 25.98 50 17.5 50S0 47.08 0 41.67c0-3.33 3.52-6.06 9.35-7.41l-.24-.3c-1-1.24-2.12-2.46-3.2-3.63l-1.05-1.15a17.49 17.49 0 01.62-24.25zm17.8 32.26l-4.5 5.54a1.65 1.65 0 01-2.56 0l-4.49-5.54c-5.28.91-8.43 2.93-8.43 4.48 0 2.04 5.53 5 14.2 5 8.67 0 14.2-2.96 14.2-5 0-1.55-3.14-3.57-8.42-4.48zM17.53 3.37a13.91 13.91 0 00-13.1 9.18A14.1 14.1 0 007.3 26.92l1.04 1.14a75.72 75.72 0 013.34 3.79l5.83 7.2 6-7.42A71.1 71.1 0 0126.73 28l1-1.1a14.1 14.1 0 00-.96-19.98 13.69 13.69 0 00-9.23-3.55zm-6.2 7.81a8.67 8.67 0 019.51-1.9 8.8 8.8 0 015.39 8.13c0 4.86-3.91 8.8-8.73 8.8a8.73 8.73 0 01-8.06-5.43 8.86 8.86 0 011.89-9.6zm10 2.36a5.4 5.4 0 00-5.9-1.19 5.47 5.47 0 002.07 10.53c2.2 0 4.17-1.33 5.01-3.38a5.5 5.5 0 00-1.17-5.96z"/></symbol><symbol viewBox="0 0 50 52" id="zshare_svg" xmlns="http://www.w3.org/2000/svg"><path d="M39.6 31.23a10.301 10.301 0 00-8.728 4.86L19.95 29.814a10.295 10.295 0 000-7.553l10.922-6.276c2.874 4.58 8.758 6.183 13.538 3.688 4.78-2.496 6.862-8.258 4.791-13.258-2.071-5-7.606-7.57-12.734-5.914-5.128 1.656-8.14 6.987-6.93 12.264L18.18 19.292a10.289 10.289 0 00-11.427-2.998C2.695 17.8 0 21.688 0 26.037c0 4.35 2.695 8.238 6.752 9.743a10.289 10.289 0 0011.427-2.997l11.359 6.526c-.975 4.304.862 8.756 4.58 11.102a10.28 10.28 0 0011.932-.68 10.421 10.421 0 003.301-11.553c-1.452-4.164-5.363-6.951-9.752-6.948zm0-27.693c3.801 0 6.884 3.1 6.884 6.923 0 3.824-3.083 6.923-6.885 6.923-3.802 0-6.884-3.1-6.884-6.923 0-3.824 3.082-6.923 6.884-6.923zM10.34 32.96c-3.801 0-6.884-3.1-6.884-6.924 0-3.823 3.083-6.923 6.885-6.923 3.802 0 6.884 3.1 6.884 6.923a6.943 6.943 0 01-2.016 4.896 6.865 6.865 0 01-4.868 2.028zM39.6 48.538c-3.803 0-6.885-3.1-6.885-6.923 0-3.824 3.082-6.923 6.884-6.923 3.802 0 6.885 3.1 6.885 6.923 0 3.824-3.083 6.923-6.885 6.923z"/></symbol><symbol viewBox="0 0 21 18" id="ztg_svg" xmlns="http://www.w3.org/2000/svg"><path fill-rule="evenodd" d="M8.24 11.863l-.347 5.026c.497 0 .712-.22.97-.484l2.33-2.29 4.829 3.637c.885.507 1.51.24 1.748-.838l3.17-15.275c.281-1.347-.473-1.874-1.336-1.543L.974 7.432C-.295 7.939-.276 8.668.76 8.999l4.763 1.523 11.062-7.12c.521-.354.994-.158.605.197l-8.95 8.264z"/></symbol></svg>