<svg id="Слой_1" data-name="Слой 1" xmlns="http://www.w3.org/2000/svg" xmlns:xlink="http://www.w3.org/1999/xlink" viewBox="0 0 80.92 59.98"><defs><style>.cls-1{fill:#fff;}.cls-1,.cls-5,.cls-7{fill-rule:evenodd;}.cls-2{fill:url(#Безымянный_градиент);}.cls-3{mask:url(#mask);}.cls-4{filter:url(#filter-6);}.cls-6{fill:none;}.cls-7{fill:url(#Безымянный_градиент_2);}</style><linearGradient id="Безымянный_градиент" x1="-1836.41" y1="15.86" x2="-1836.41" y2="16.86" gradientTransform="translate(108853.56 -951.47) scale(59.25 59.98)" gradientUnits="userSpaceOnUse"><stop offset="0" stop-color="#6a8971"/><stop offset="1" stop-color="#627f5f"/></linearGradient><mask id="mask" x="21.73" y="0" width="59.19" height="59.98" maskUnits="userSpaceOnUse"><g id="mask-3"><path id="path-2" class="cls-1" d="M75.44,5.62a19.27,19.27,0,0,1,0,26.91l-21.6,21.9a18.71,18.71,0,0,1-26.6,0,19.16,19.16,0,0,1,0-26.9L48.94,5.62A18.42,18.42,0,0,1,75.44,5.62Z"/></g></mask><filter id="filter-6" x="-96.1%" y="-46%" width="292.4%" height="197.1%" name="filter-6"><feOffset result="shadowOffsetOuter1" dy="1" in="SourceAlpha"/><feGaussianBlur result="shadowBlurOuter1" stdDeviation="6" in="shadowOffsetOuter1"/></filter><linearGradient id="Безымянный_градиент_2" x1="-1820.77" y1="16.29" x2="-1820.48" y2="16.55" gradientTransform="translate(133666.87 -951.48) scale(73.4 60)" gradientUnits="userSpaceOnUse"><stop offset="0" stop-color="#ff9b46"/><stop offset="1" stop-color="#ff8425"/></linearGradient></defs><g id="Иконка"><g id="Rectangle"><g id="Mask-2" data-name="Mask"><path id="path-2-2" data-name="path-2" class="cls-2" d="M75.44,5.62a19.27,19.27,0,0,1,0,26.91l-21.6,21.9a18.71,18.71,0,0,1-26.6,0,19.16,19.16,0,0,1,0-26.9L48.94,5.62A18.42,18.42,0,0,1,75.44,5.62Z"/></g><g class="cls-3"><g class="cls-4"><path id="path-5" class="cls-5" d="M33.81,20.84A9.31,9.31,0,0,1,47,20.77l.07.07L67,41a18.68,18.68,0,0,1-26.45.14L40.39,41,33.74,34.2A9.55,9.55,0,0,1,33.81,20.84Z"/></g><path id="path-5-2" data-name="path-5" class="cls-6" d="M33.81,20.84A9.31,9.31,0,0,1,47,20.77l.07.07L67,41a18.68,18.68,0,0,1-26.45.14L40.39,41,33.74,34.2A9.55,9.55,0,0,1,33.81,20.84Z"/></g></g><path id="Rectangle-2" data-name="Rectangle" class="cls-7" d="M5.49,5.62a18.71,18.71,0,0,1,26.6,0L52,25.82a29.46,29.46,0,0,0,21.1,8.8h.3L53.69,54.43a18.71,18.71,0,0,1-26.6,0l-21.7-22A19.24,19.24,0,0,1,5.49,5.62Z"/></g></svg>