<svg xmlns="http://www.w3.org/2000/svg" version="1.1" xmlns:xlink="http://www.w3.org/1999/xlink" xmlns:svgjs="http://svgjs.com/svgjs" width="1000" height="1000"><rect width="1000" height="1000" rx="500" ry="500" fill="#000000"></rect><g transform="matrix(19.271948608137045,0,0,19.271948608137045,56.74518201284798,49.08640953978835)"><svg xmlns="http://www.w3.org/2000/svg" version="1.1" xmlns:xlink="http://www.w3.org/1999/xlink" xmlns:svgjs="http://svgjs.com/svgjs" width="46" height="46.7"><svg xmlns="http://www.w3.org/2000/svg" xml:space="preserve" viewBox="0 0 46 46.7">
  <path fill="#FFFF01" fill-rule="evenodd" d="M23 0c12.7 0 23 10.5 23 23.4 0 12.9-10.3 23.4-23 23.4S0 36.3 0 23.4C0 10.5 10.3 0 23 0zm18.8 33c1.5-3 2.2-6.3 2.2-9.6C44 12.1 35.5 2.8 24.6 2l13.2 31h4zm-1.2 2.1h-4.7l-4.3-10H14.3l-4.2 10H5.3a20.93 20.93 0 0 0 35.3 0zM4.1 33H8L21.4 2C10.5 2.8 1.9 12.1 1.9 23.4c0 3.4.8 6.7 2.2 9.6zM23 4.9l-7.8 18h15.5L23 4.9z" clip-rule="evenodd"></path>
</svg></svg></g></svg>