<svg xmlns="http://www.w3.org/2000/svg" xml:space="preserve" id="Слой_1" x="0" y="0" enable-background="new 0 0 91 129" version="1.1" viewBox="0 0 91 129">
  <style>
    .st0{enable-background:new}.st1{fill:#1e1e1e}
  </style>
  <filter id="filter-6" width="292.4%" height="197.1%" x="-96.1%" y="-46%" filterUnits="objectBoundingBox">
    <feOffset dy="1" in="SourceAlpha" result="shadowOffsetOuter1"/>
    <feGaussianBlur in="shadowOffsetOuter1" result="shadowBlurOuter1" stdDeviation="6"/>
    <feColorMatrix in="shadowBlurOuter1" values="0 0 0 0 0.157789356 0 0 0 0 0.324652097 0 0 0 0 0.336787569 0 0 0 1 0"/>
  </filter>
  <g class="st0">
    <path d="M18.2 98.8h.2l5.7-13.2h4.7V101h-3.2V88.7h-.2L20.2 101h-3.7l-5.3-12.3H11V101H7.7V85.6h4.7l5.8 13.2zM38.5 99.9c.7 0 1.4-.1 2-.4.6-.2 1.2-.6 1.8-1.1l.9 1.3c-.3.2-.6.5-1 .7-.4.2-.8.4-1.2.5-.4.1-.9.2-1.4.3-.5.1-.9.1-1.4.1-1 0-2-.1-2.8-.4-.9-.3-1.6-.7-2.2-1.2-.6-.5-1.1-1.2-1.4-1.9s-.5-1.6-.5-2.6.2-1.9.5-2.6c.3-.8.8-1.4 1.3-1.9.6-.5 1.2-.9 2-1.2s1.6-.4 2.6-.4c.9 0 1.7.1 2.5.4.8.3 1.5.6 2 1.2.6.5 1 1.1 1.4 1.8.3.7.5 1.5.5 2.4v1.5h-9.4c.2 1.2.6 2.1 1.3 2.6.7.6 1.5.9 2.5.9zm-.7-9.4c-.4 0-.8.1-1.2.2-.4.2-.7.4-1 .8-.3.4-.5.8-.7 1.4-.2.6-.3 1.2-.3 2h6.2c0-.8-.1-1.4-.3-2-.2-.6-.4-1-.7-1.4-.3-.4-.6-.6-1-.8-.3-.1-.7-.2-1-.2zM52.8 89.1c.5 0 .9 0 1.4.1.5.1.9.2 1.4.3s.8.3 1.2.5c.4.2.7.4 1 .7l-.9 1.3c-.6-.5-1.2-.8-1.8-1.1s-1.3-.4-2-.4c-.5 0-1 .1-1.5.3s-.8.4-1.1.8c-.3.4-.6.9-.8 1.4-.2.6-.3 1.3-.3 2.1s.1 1.5.3 2.1c.2.6.4 1.1.8 1.4.3.4.7.6 1.2.8.5.2 1 .3 1.6.3.7 0 1.4-.1 2-.4.6-.2 1.2-.6 1.8-1.1l.9 1.3c-.3.2-.6.5-1 .7-.4.2-.8.4-1.2.5-.4.1-.9.2-1.4.3-.5.1-.9.1-1.4.1-1 0-2-.1-2.8-.4-.9-.3-1.6-.7-2.2-1.2-.6-.5-1.1-1.2-1.4-1.9s-.5-1.6-.5-2.6.2-1.9.5-2.6c.3-.8.8-1.4 1.4-1.9.6-.5 1.3-.9 2.1-1.2s1.7-.2 2.7-.2zM70.9 91.1h-4.6v9.9h-3.1v-9.9h-4.6v-1.5h12.3v1.5zM78.1 89.1c1 0 1.9.1 2.7.4.8.3 1.5.7 2.1 1.2.6.5 1 1.2 1.4 1.9.3.8.5 1.6.5 2.6s-.2 1.9-.5 2.6-.8 1.4-1.4 1.9c-.6.5-1.3.9-2.1 1.2-.8.3-1.7.4-2.7.4-1 0-1.9-.1-2.7-.4s-1.5-.7-2.1-1.2c-.6-.5-1-1.2-1.4-1.9s-.5-1.6-.5-2.6.2-1.9.5-2.6c.3-.8.8-1.4 1.4-1.9.6-.5 1.3-.9 2.1-1.2s1.7-.4 2.7-.4zm0 10.9c.5 0 .9-.1 1.3-.3.4-.2.8-.5 1.1-.8s.6-.9.7-1.5c.2-.6.3-1.3.3-2.2s-.1-1.6-.3-2.2c-.2-.6-.4-1.1-.7-1.5s-.7-.6-1.1-.8c-.4-.2-.9-.3-1.3-.3-.5 0-.9.1-1.3.3-.4.2-.8.5-1.1.8s-.6.9-.7 1.5c-.2.6-.3 1.3-.3 2.2s.1 1.6.3 2.2.4 1.1.7 1.5.7.6 1.1.8c.4.2.9.3 1.3.3z" class="st1"/>
  </g>
  <g class="st0">
    <path d="M7.6 113.8c-1.1 0-2 .2-3 .5-.9.3-1.8.8-2.6 1.5l-1-1.3c.8-.7 1.8-1.3 3-1.7 1.2-.4 2.4-.6 3.8-.6 1.1 0 2.1.1 3 .3.9.2 1.6.5 2.1.9.6.4 1 .8 1.3 1.3.3.5.4 1 .4 1.6 0 .9-.2 1.7-.7 2.3-.5.6-1.2 1.1-2.2 1.4 1.1.3 2 .7 2.6 1.4s.9 1.5.9 2.6c0 .6-.2 1.2-.5 1.8-.3.5-.8 1-1.4 1.4s-1.5.7-2.5 1-2.2.4-3.6.4-2.8-.2-4-.7c-1.2-.5-2.2-1.1-3.1-1.8l1.1-1.3c.8.8 1.7 1.3 2.7 1.7.9.3 2 .5 3.1.5.9 0 1.6-.1 2.2-.2.6-.2 1.1-.4 1.5-.6s.6-.6.8-1c.2-.4.3-.8.3-1.2 0-.9-.3-1.6-.8-2-.6-.5-1.4-.7-2.6-.7H3.9v-1.7h4.2c2.1 0 3.2-1 3.2-2.9 0-.8-.3-1.4-.9-1.9-.7-.7-1.6-1-2.8-1zM26 120.7c0-1.1-.3-1.8-.8-2.3s-1.3-.7-2.1-.7c-.7 0-1.3.1-1.9.3-.6.2-1.2.5-1.7.8l-.8-1.3c.3-.2.7-.4 1.1-.6s.8-.3 1.2-.4l1.2-.3c.4-.1.8-.1 1.1-.1.9 0 1.8.1 2.5.3.7.2 1.3.5 1.8.9s.9.9 1.1 1.5c.3.6.4 1.2.4 1.9v7.3h-6.2c-2 0-3.5-.3-4.4-.9-.9-.6-1.4-1.5-1.4-2.7s.5-2.1 1.4-2.7c.9-.6 2.4-.9 4.4-.9H26zm-5.6 3.7c0 1.4.8 2.1 2.5 2.1H26v-4.2h-3.1c-1.7 0-2.5.7-2.5 2.1zM38.3 117.4c.9 0 1.8.1 2.5.4s1.5.6 2 1.1c.6.5 1 1.1 1.3 1.7.3.7.5 1.4.5 2.2s-.2 1.6-.5 2.2c-.3.7-.8 1.3-1.4 1.7-.6.5-1.3.9-2.1 1.1s-1.7.4-2.7.4c-1 0-1.9-.1-2.7-.4-.8-.3-1.5-.7-2.1-1.2-.6-.5-1-1.1-1.4-1.9s-.5-1.6-.5-2.5V120c0-2.3.5-4 1.6-5.2 1.1-1.2 2.6-1.9 4.6-2l5.7-.5v2.5l-5.5.5c-3.1.3-4.6 1.9-4.6 4.7h.2c.4-.8 1-1.5 1.8-1.9s2.1-.7 3.3-.7zm-.2 1.6c-.4 0-.9.1-1.3.3-.4.2-.7.4-1.1.7-.3.3-.5.7-.7 1.2-.2.5-.3 1.1-.3 1.7 0 .7.1 1.3.3 1.8.2.5.4.9.7 1.3.3.3.7.6 1.1.8.4.2.8.3 1.3.3s.9-.1 1.3-.3c.4-.2.7-.4 1.1-.8.3-.3.6-.8.7-1.3.2-.5.3-1.1.3-1.8s-.1-1.2-.3-1.7-.4-.9-.7-1.2c-.3-.3-.7-.6-1.1-.7-.5-.2-.9-.3-1.3-.3zM53.1 116.1c1 0 1.9.1 2.7.4.8.3 1.5.7 2.1 1.2s1 1.2 1.4 1.9c.3.8.5 1.6.5 2.6s-.2 1.9-.5 2.6-.8 1.4-1.4 1.9c-.6.5-1.3.9-2.1 1.2-.8.3-1.7.4-2.7.4-1 0-1.9-.1-2.7-.4-.8-.3-1.5-.7-2.1-1.2-.6-.5-1-1.2-1.4-1.9s-.5-1.6-.5-2.6.2-1.9.5-2.6c.3-.8.8-1.4 1.4-1.9.6-.5 1.3-.9 2.1-1.2.8-.2 1.8-.4 2.7-.4zm0 10.9c.5 0 .9-.1 1.3-.3.4-.2.8-.5 1.1-.8.3-.4.6-.9.7-1.5s.3-1.3.3-2.2-.1-1.6-.3-2.2c-.2-.6-.4-1.1-.7-1.5-.3-.4-.7-.6-1.1-.8-.4-.2-.9-.3-1.3-.3s-.9.1-1.3.3c-.4.2-.8.5-1.1.8-.3.4-.6.9-.7 1.5-.2.6-.3 1.3-.3 2.2s.1 1.6.3 2.2c.2.6.4 1.1.7 1.5.3.4.7.6 1.1.8.4.2.9.3 1.3.3zM72.7 118.1h-4.6v9.9H65v-9.9h-4.6v-1.5h12.3v1.5zM80.4 120.5c1.9 0 3.2.3 4.1 1 .9.7 1.3 1.6 1.3 2.7 0 1.2-.4 2.1-1.3 2.7-.9.7-2.2 1-4.1 1h-5.9v-11.4h3.1v4h2.8zm-2.8 1.6v4.4h2.9c.7 0 1.2-.2 1.5-.6s.5-.9.5-1.6c0-.7-.2-1.3-.5-1.6s-.9-.6-1.5-.6h-2.9zm9.9 5.9v-11.4h3.1V128h-3.1z" class="st1"/>
  </g>
  <g id="Иконка" transform="translate(13)">
    <g id="Rectangle" transform="translate(21.7528)">
      <g id="Mask">
        <linearGradient id="path-2_3_" x1="-932.8259" x2="-932.8259" y1="597.0812" y2="596.0812" gradientTransform="matrix(59.2472 0 0 -59.9839 55288.9023 35815.2617)" gradientUnits="userSpaceOnUse">
          <stop offset="0" stop-color="#6a8971"/>
          <stop offset="1" stop-color="#627f5f"/>
        </linearGradient>
        <path id="path-2_1_" fill="url(#path-2_3_)" d="M45.7 5.6c7.3 7.4 7.3 19.5 0 26.9L24.1 54.4c-7.3 7.4-19.2 7.4-26.6 0s-7.3-19.5 0-26.9L19.2 5.6c7.3-7.5 19.2-7.5 26.5 0z"/>
      </g>
      <defs>
        <filter id="Adobe_OpacityMaskFilter" width="105" height="56" x="-33.3" y="4.9" filterUnits="userSpaceOnUse">
          <feColorMatrix values="1 0 0 0 0 0 1 0 0 0 0 0 1 0 0 0 0 0 1 0"/>
        </filter>
      </defs>
      <mask id="mask-3_1_" width="105" height="56" x="-33.3" y="4.9" maskUnits="userSpaceOnUse">
        <g filter="url(#Adobe_OpacityMaskFilter)">
          <path id="path-2_2_" fill="#fff" fill-rule="evenodd" d="M45.7 5.6c7.3 7.4 7.3 19.5 0 26.9L24.1 54.4c-7.3 7.4-19.2 7.4-26.6 0s-7.3-19.5 0-26.9L19.2 5.6c7.3-7.5 19.2-7.5 26.5 0z" clip-rule="evenodd"/>
        </g>
      </mask>
      <g mask="url(#mask-3_1_)" transform="rotate(-45 25.3498 34.2391)">
        <g filter="url(#filter-6)">
          <path id="path-5_2_" fill-rule="evenodd" d="M19.8 9.7c5.2 0 9.4 4.1 9.4 9.3v.1L29 47.4c-10.3.1-18.7-8.2-18.8-18.6v-.2l.1-9.5c0-5.1 4.3-9.4 9.5-9.4z" clip-rule="evenodd"/>
        </g>
        <path id="path-5_1_" fill="url(#path-5_2_)" fill-rule="evenodd" d="M19.8 9.7c5.2 0 9.4 4.1 9.4 9.3v.1L29 47.4c-10.3.1-18.7-8.2-18.8-18.6v-.2l.1-9.5c0-5.1 4.3-9.4 9.5-9.4z" clip-rule="evenodd"/>
      </g>
    </g>
    <linearGradient id="Rectangle_2_" x1="-914.2063" x2="-913.9158" y1="596.6526" y2="596.388" gradientTransform="matrix(73.3987 0 0 -60 67118.5703 35824.9961)" gradientUnits="userSpaceOnUse">
      <stop offset="0" stop-color="#ff9b46"/>
      <stop offset="1" stop-color="#ff8425"/>
    </linearGradient>
    <path id="Rectangle_1_" fill="url(#Rectangle_2_)" fill-rule="evenodd" d="M-2.5 5.6c7.3-7.4 19.2-7.4 26.6 0L44 25.8c5.6 5.7 13.2 8.8 21.1 8.8h.3L45.7 54.4c-7.3 7.4-19.2 7.4-26.6 0l-21.7-22C-9.8 25-9.8 13-2.5 5.6z" clip-rule="evenodd"/>
  </g>
</svg>
