<?xml version="1.0" standalone="no"?>
<!DOCTYPE svg PUBLIC "-//W3C//DTD SVG 20010904//EN"
 "http://www.w3.org/TR/2001/REC-SVG-20010904/DTD/svg10.dtd">
<svg version="1.0" xmlns="http://www.w3.org/2000/svg"
 width="1296.000000pt" height="1296.000000pt" viewBox="0 0 1296.000000 1296.000000"
 preserveAspectRatio="xMidYMid meet">
<metadata>
Created by potrace 1.14, written by Peter Selinger 2001-2017
</metadata>
<g transform="translate(0.000000,1296.000000) scale(0.100000,-0.100000)"
fill="#000000" stroke="none">
<path d="M9749 11276 c-2 -2 -40 -7 -84 -11 -44 -3 -89 -8 -100 -10 -11 -3
-38 -7 -60 -10 -22 -3 -47 -7 -55 -10 -25 -7 -93 -18 -117 -19 -13 -1 -23 -4
-23 -7 0 -3 -6 -6 -12 -6 -18 -1 -54 -9 -118 -28 -30 -9 -68 -20 -85 -25 -46
-13 -158 -50 -180 -60 -11 -5 -54 -23 -95 -40 -104 -44 -220 -100 -252 -122
-16 -11 -28 -16 -28 -12 0 4 -8 0 -17 -8 -10 -9 -28 -19 -40 -22 -13 -4 -23
-12 -23 -17 0 -5 -4 -9 -9 -9 -9 0 -111 -59 -121 -70 -3 -3 -34 -25 -70 -49
-36 -24 -79 -56 -96 -70 -17 -14 -48 -39 -69 -56 -90 -69 -221 -199 -1194
-1182 -225 -227 -411 -413 -415 -413 -7 0 -89 82 -691 694 -231 235 -422 431
-423 436 -2 6 -8 8 -13 4 -5 -3 -9 -1 -9 4 0 8 -249 263 -326 332 -21 20 -77
67 -124 105 -47 38 -87 72 -90 75 -10 12 -269 180 -294 191 -14 7 -26 16 -26
21 0 4 -9 8 -19 8 -11 0 -21 3 -23 8 -4 10 -196 103 -293 142 -44 18 -89 36
-100 41 -33 14 -198 68 -225 73 -14 3 -50 13 -80 22 -30 8 -64 17 -75 19 -11
1 -20 3 -20 4 0 2 -11 4 -25 7 -14 2 -41 7 -60 10 -39 8 -35 7 -145 22 -231
33 -666 36 -805 6 -14 -3 -36 -7 -50 -9 -81 -11 -195 -32 -195 -35 0 -2 -21
-6 -62 -13 -17 -3 -36 -8 -42 -11 -6 -4 -23 -9 -38 -11 -101 -13 -609 -215
-621 -247 -2 -4 -9 -8 -16 -8 -15 0 -213 -117 -240 -141 -11 -11 -24 -19 -29
-19 -12 0 -228 -166 -301 -232 -163 -146 -272 -266 -454 -503 -7 -10 -83 -125
-127 -195 -31 -49 -79 -135 -110 -200 -15 -30 -31 -62 -36 -70 -13 -22 -41
-83 -43 -95 -1 -5 -4 -14 -8 -20 -33 -55 -155 -424 -162 -490 -1 -11 -5 -26
-9 -32 -5 -7 -6 -17 -2 -22 3 -5 1 -12 -4 -16 -5 -3 -8 -14 -6 -25 2 -11 -1
-20 -7 -20 -5 0 -8 -6 -5 -14 3 -7 1 -33 -5 -57 -12 -54 -20 -111 -35 -254
-15 -145 -6 -645 12 -675 2 -3 6 -29 9 -58 3 -29 7 -56 10 -60 2 -4 7 -31 10
-61 4 -29 8 -57 11 -61 4 -6 8 -24 20 -87 3 -16 8 -36 11 -45 3 -10 7 -30 10
-45 3 -15 8 -31 12 -37 3 -6 7 -17 8 -23 3 -18 43 -144 54 -168 4 -11 13 -33
19 -50 19 -57 72 -180 111 -257 21 -42 36 -79 33 -82 -4 -3 -2 -6 4 -6 5 0 18
-18 28 -40 10 -22 23 -40 28 -40 6 0 8 -3 4 -6 -3 -3 5 -24 19 -45 13 -21 24
-43 24 -48 0 -5 3 -11 8 -13 4 -1 27 -34 52 -73 24 -38 47 -72 50 -75 3 -3 32
-41 64 -84 81 -109 179 -220 315 -358 64 -65 117 -122 119 -128 2 -5 10 -10
18 -10 8 0 14 -4 14 -8 0 -5 118 -128 262 -274 145 -146 448 -454 673 -683
226 -230 418 -425 429 -434 10 -9 30 -29 45 -45 14 -15 143 -147 286 -291 143
-145 460 -467 705 -715 712 -723 951 -962 1009 -1010 29 -25 63 -53 75 -64 29
-26 192 -145 241 -177 129 -84 154 -99 163 -99 6 0 12 -4 14 -8 4 -11 324
-168 363 -178 6 -1 46 -16 90 -32 87 -32 221 -75 230 -73 3 1 21 -5 40 -14 25
-10 34 -11 28 -2 -5 9 -4 9 8 0 8 -6 17 -12 22 -12 4 -1 8 -1 10 -2 5 -1 33
-7 62 -13 17 -3 44 -9 60 -12 82 -16 135 -24 180 -29 28 -3 61 -8 75 -11 34
-9 600 -14 600 -6 0 4 22 8 49 10 28 2 60 5 73 7 13 3 43 8 68 11 52 7 58 8
160 29 110 22 109 22 190 45 41 12 80 23 85 24 6 2 17 6 25 9 17 7 99 36 115
41 37 11 270 109 275 116 3 4 33 19 68 35 34 16 62 33 62 38 0 6 3 8 6 4 10
-10 294 168 294 184 0 5 5 9 12 9 9 0 119 79 138 100 3 3 25 21 50 41 25 20
64 55 88 78 24 22 48 41 54 41 6 0 9 2 7 5 -5 4 178 191 1107 1132 224 226
411 417 415 425 5 7 9 9 9 5 0 -5 11 5 25 22 14 16 148 154 298 305 150 152
272 276 272 276 -1 0 163 165 363 367 629 636 879 892 874 898 -3 3 -1 5 4 5
6 0 27 16 47 35 20 19 36 35 34 35 -1 0 36 39 82 88 95 99 271 314 271 331 0
6 3 11 8 11 4 0 23 25 41 55 19 30 39 55 43 55 4 0 8 4 8 9 0 5 20 44 45 85
25 42 45 81 45 85 0 5 3 11 8 13 10 4 112 217 153 318 19 47 38 88 44 92 5 4
7 8 3 8 -5 0 26 109 49 170 4 8 7 20 8 25 1 6 3 12 4 15 3 6 11 38 15 60 2 8
6 22 9 30 10 29 41 170 52 240 31 196 39 300 40 520 0 163 -11 374 -19 390 -2
3 -7 29 -10 59 -4 30 -9 64 -11 75 -8 37 -16 80 -20 106 -2 14 -4 25 -5 25 -1
0 -3 9 -5 20 -2 11 -6 31 -10 45 -3 14 -8 34 -10 46 -3 11 -18 65 -35 120 -17
54 -32 106 -35 114 -7 24 -55 152 -70 185 -7 17 -23 54 -36 83 -13 30 -38 82
-55 115 -18 34 -45 87 -60 117 -16 30 -32 57 -36 58 -4 2 -8 10 -8 18 0 8 -4
14 -10 14 -5 0 -10 5 -10 10 0 15 -125 203 -177 267 -24 29 -43 57 -43 62 0 5
-4 11 -9 13 -4 2 -35 35 -67 73 -147 175 -355 365 -558 508 -60 43 -135 92
-165 109 -31 18 -57 35 -59 40 -2 4 -12 8 -22 8 -10 0 -20 4 -22 8 -5 14 -263
136 -368 175 -153 57 -295 102 -355 113 -87 16 -193 37 -205 42 -17 5 -20 6
-105 16 -33 4 -73 10 -90 12 -35 6 -511 15 -516 10z"/>
</g>
</svg>
